<?xml version="1.0" encoding="UTF-8" standalone="no"?>
<!-- Created with Inkscape (http://www.inkscape.org/) -->

<svg
   xmlns:dc="http://purl.org/dc/elements/1.1/"
   xmlns:cc="http://creativecommons.org/ns#"
   xmlns:rdf="http://www.w3.org/1999/02/22-rdf-syntax-ns#"
   xmlns:svg="http://www.w3.org/2000/svg"
   xmlns="http://www.w3.org/2000/svg"
   xmlns:xlink="http://www.w3.org/1999/xlink"
   xmlns:sodipodi="http://sodipodi.sourceforge.net/DTD/sodipodi-0.dtd"
   xmlns:inkscape="http://www.inkscape.org/namespaces/inkscape"
   width="339.22363mm"
   height="192.93015mm"
   viewBox="0 0 1201.9734 683.61075"
   id="svg2"
   version="1.1"
   inkscape:version="0.91 r13725"
   sodipodi:docname="paysage.svg">
  <defs
     id="defs4">
    <linearGradient
       inkscape:collect="always"
       id="linearGradient4151">
      <stop
         style="stop-color:#6e2d00;stop-opacity:1"
         offset="0"
         id="stop4153" />
      <stop
         style="stop-color:#ff8837;stop-opacity:1"
         offset="1"
         id="stop4155" />
    </linearGradient>
    <linearGradient
       inkscape:collect="always"
       xlink:href="#linearGradient4151"
       id="linearGradient4157"
       x1="1.7433995e-005"
       y1="846.29108"
       x2="-2.0389786"
       y2="211.59013"
       gradientUnits="userSpaceOnUse"
       gradientTransform="matrix(0.99083333,0,0,0.98676471,-5.1113715,2.6978039)" />
  </defs>
  <sodipodi:namedview
     id="base"
     pagecolor="#ffffff"
     bordercolor="#666666"
     borderopacity="1.0"
     inkscape:pageopacity="0.0"
     inkscape:pageshadow="2"
     inkscape:zoom="0.49497475"
     inkscape:cx="707.37951"
     inkscape:cy="272.42573"
     inkscape:document-units="px"
     inkscape:current-layer="layer1"
     showgrid="false"
     fit-margin-top="0"
     fit-margin-left="0"
     fit-margin-right="0"
     fit-margin-bottom="0"
     inkscape:window-width="1366"
     inkscape:window-height="716"
     inkscape:window-x="-8"
     inkscape:window-y="-8"
     inkscape:window-maximized="1" />
  <metadata
     id="metadata7">
    <rdf:RDF>
      <cc:Work
         rdf:about="">
        <dc:format>image/svg+xml</dc:format>
        <dc:type
           rdf:resource="http://purl.org/dc/dcmitype/StillImage" />
        <dc:title></dc:title>
      </cc:Work>
    </rdf:RDF>
  </metadata>
  <g
     inkscape:label="Calque 1"
     inkscape:groupmode="layer"
     id="layer1"
     transform="translate(557.60419,-203.83406)">
    <rect
       style="opacity:1;fill:url(#linearGradient4157);fill-opacity:1;fill-rule:nonzero;stroke:none;stroke-width:1;stroke-linecap:round;stroke-linejoin:miter;stroke-miterlimit:4;stroke-dasharray:none;stroke-dashoffset:0;stroke-opacity:1"
       id="rect4149"
       width="1201.0714"
       height="677.81238"
       x="-557.60419"
       y="203.83406" />
    <path
       style="fill:#000000"
       d="m -555.63079,795.19379 c 0,-71.10601 0.35814,-93.05071 1.5625,-95.7407 l 1.5625,-3.48992 26.25,0.83042 c 14.4375,0.45673 28.07813,1.46555 30.3125,2.24181 l 4.0625,1.41142 0.14419,36.93638 c 0.0793,20.31502 0.21992,37.78014 0.3125,38.81139 0.11788,1.31328 1.30906,1.76116 3.97601,1.49503 5.14856,-0.5138 8.48379,3.31727 8.81476,10.12522 0.1405,2.89011 0.31105,5.95788 0.379,6.81725 0.0828,1.0471 2.40772,1.5625 7.04834,1.5625 4.41719,0 8.6685,0.88958 11.74007,2.45658 4.79316,2.44528 14.59875,12.54593 18.55943,19.1179 1.14337,1.89721 2.48023,3.30346 2.97078,3.125 0.84082,-0.30589 17.59495,-23.14714 20.55164,-28.01848 1.24676,-2.0541 2.04392,-2.125 8.75,-0.7782 4.05806,0.81499 12.80451,1.86181 19.43655,2.32628 l 12.05828,0.84447 2.00422,10.95489 c 1.10233,6.02519 2.00423,11.62101 2.00423,12.43514 0,1.42148 9.85208,11.18425 11.35595,11.25301 0.40201,0.0184 2.08951,-2.75724 3.75,-6.16803 1.66048,-3.41078 3.68481,-6.22328 4.49852,-6.25 0.81372,-0.0267 1.65747,-1.59543 1.875,-3.48606 0.29121,-2.5308 1.1844,-3.54902 3.38634,-3.8603 2.75978,-0.39015 2.92803,-0.10887 2.17803,3.6411 -0.54062,2.70305 -0.22833,4.72826 0.93257,6.04781 2.8751,3.26804 3.67253,9.47169 1.45416,11.31277 -2.36843,1.96562 -2.65618,12.01267 -0.36807,12.8514 0.85938,0.31501 9.29688,0.69025 18.75,0.83386 l 17.1875,0.26112 0.15953,-4.76263 c 0.0878,-2.61944 0.29466,-6.07962 0.45981,-7.68927 0.25244,-2.46043 -0.17123,-2.83651 -2.65954,-2.36085 -3.98978,0.7627 -3.90887,-2.32828 0.0873,-3.33123 1.68971,-0.42409 3.10464,-1.73728 3.1764,-2.94802 0.0713,-1.2008 0.24691,-4.99576 0.39051,-8.43326 0.23173,-5.54716 0.59661,-6.29744 3.24473,-6.67186 3.38726,-0.47894 5.3941,1.84248 4.0886,4.72951 -0.48308,1.06829 -0.70155,5.31735 -0.4855,9.44235 0.21605,4.125 0.31704,8.90625 0.22441,10.625 -0.69435,12.88549 -1.18808,11.76049 5.37635,12.2507 3.27313,0.24443 5.9375,-0.0958 5.9375,-0.75823 0,-0.66088 3.51563,-1.18561 7.8125,-1.16603 4.29688,0.0196 9.39599,-0.60838 11.33137,-1.39543 3.75358,-1.52645 14.34991,-1.93055 17.62889,-0.67227 1.08749,0.4173 1.97724,1.5423 1.97724,2.5 0,1.27729 1.8319,1.74126 6.875,1.74126 5.27778,0 6.875,-0.4356 6.875,-1.875 0,-1.03125 0.55179,-1.875 1.22619,-1.875 0.6744,0 1.56887,-1.36538 1.98771,-3.03417 0.58881,-2.34603 1.85954,-3.21968 5.60294,-3.85212 6.10431,-1.03132 7.43316,-0.19127 7.43316,4.69898 0,3.36995 0.21758,3.63546 1.5625,1.90667 0.85938,-1.10465 2.60103,-2.19653 3.87035,-2.42641 2.4653,-0.44646 5.64269,-7.90755 5.73215,-13.46012 0.0284,-1.7643 0.0591,-6.16095 0.0683,-9.77033 0.0154,-6.1189 0.22269,-6.5625 3.0662,-6.5625 2.60887,0 3.10572,0.66354 3.4376,4.59087 0.60553,7.16547 3.13038,6.50258 4.15602,-1.09116 1.41371,-10.46668 4.30941,-13.70046 8.13767,-9.0877 1.28617,1.54976 1.26356,2.5563 -0.11938,5.3125 -0.93839,1.87028 -1.91171,3.82236 -2.16295,4.33799 -0.25122,0.51562 0.58231,0.9375 1.8523,0.9375 2.40175,0 7.93089,-9.81315 7.90998,-14.03869 -0.006,-1.27722 1.28524,-2.48895 3.15247,-2.95759 2.39371,-0.60078 2.98136,-1.36676 2.41577,-3.14881 -1.28313,-4.04276 0.53623,-7.35491 4.04004,-7.35491 3.03103,0 3.15841,0.26339 2.40523,4.97354 -0.84433,5.28012 -0.80498,5.31578 7.2168,6.5403 1.30131,0.19863 2.76581,1.20491 3.25445,2.23616 0.48864,1.03125 1.92441,4.0239 3.19062,6.65034 1.64067,3.40316 1.89533,5.0268 0.88625,5.65044 -2.33801,1.44497 -4.34271,7.92886 -2.8981,9.37347 0.78473,0.78473 0.97427,5.39345 0.49785,12.10526 -0.73378,10.33758 -0.64583,10.8704 1.90429,11.53728 2.7541,0.72021 3.19809,-0.26645 2.74323,-6.09625 -0.11388,-1.45996 0.68421,-3.54579 1.77358,-4.63518 2.33139,-2.33137 1.3563,-8.33536 -1.35371,-8.33536 -2.26484,0 -2.20956,-1.18134 0.76051,-16.25 1.375,-6.97607 2.5,-12.88455 2.5,-13.12995 0,-0.24539 1.26563,-0.62774 2.8125,-0.84965 2.18048,-0.31281 2.73133,-1.10482 2.45128,-3.52444 -0.65915,-5.69488 0.80824,-8.94613 3.84291,-8.51461 2.09925,0.29851 2.81608,1.29998 2.96595,4.14365 0.10875,2.0625 0.24933,4.43121 0.3125,5.2638 0.0631,0.8326 1.33323,2.64889 2.82234,4.03621 1.94759,1.81445 2.86811,4.45934 3.27979,9.42369 0.77166,9.30516 2.56619,9.40616 4.57751,0.25765 0.6036,-2.74546 1.3819,-3.43215 3.54191,-3.125 2.15509,0.30645 2.76832,1.22433 2.76832,4.14365 0,2.3963 0.78966,4.07389 2.1875,4.64723 1.26101,0.51721 2.1875,2.2212 2.1875,4.02326 0,2.37686 0.48865,2.93854 2.03892,2.34364 1.73531,-0.6659 1.94205,-2.33529 1.38833,-11.21077 -0.59235,-9.49429 -0.44658,-10.42836 1.62738,-10.42836 1.9167,0 2.20221,0.8281 1.8001,5.22107 -0.50612,5.52932 1.51972,8.40879 5.97252,8.48918 1.87128,0.0337 2.0826,-0.70859 1.40606,-4.93945 -0.63963,-3.99996 -0.38018,-5.13885 1.31925,-5.79097 3.262546,-1.25197 4.618386,1.08828 5.172316,8.92776 0.27945,3.95492 1.15755,7.97332 1.95134,8.92977 1.19217,1.43649 1.86973,9.11184 2.27092,25.72514 0.0443,1.83294 1.26134,2.1875 7.50885,2.1875 6.09223,0 7.6927,-0.44225 8.75,-2.41783 1.85714,-3.47008 1.59452,-6.33217 -0.58102,-6.33217 -1.03125,0 -1.875,-0.54485 -1.875,-1.21077 0,-0.66592 0.84375,-0.88699 1.875,-0.49127 1.91239,0.73386 2.39273,-0.94776 1.92391,-6.73546 -0.14729,-1.81822 0.46538,-2.8125 1.73305,-2.8125 1.07848,0 2.71453,-1.82812 3.63567,-4.0625 l 1.67478,-4.0625 0.91709,6.01554 c 0.62528,4.10142 0.43458,6.59692 -0.59934,7.8427 -1.85729,2.23791 -1.43088,2.72758 2.87765,3.30457 3.84929,0.51549 6.18514,2.21219 3.04553,2.21219 -1.53395,0 -2.08334,1.11527 -2.08334,4.22921 0,5.401 4.15206,7.00318 8.22729,3.17469 1.46825,-1.37935 4.71776,-3.07345 7.22112,-3.76466 3.92417,-1.08351 4.55159,-1.76558 4.55159,-4.94799 0,-4.07983 1.34899,-4.66369 4.19643,-1.81625 3.0835,3.08349 4.38331,2.16945 4.88831,-3.4375 0.45746,-5.07904 0.48808,-5.0241 0.69687,1.25 0.1894,5.69129 0.55549,6.5625 2.75762,6.5625 1.39658,0 2.87428,-0.87313 3.28378,-1.94028 0.63645,-1.65856 1.09154,-1.56782 3.13447,0.625 2.81914,3.02602 4.79252,3.31024 4.79252,0.69028 0,-2.0607 1.07755,-2.34366 3.37151,-0.88536 0.98699,0.62742 1.0999,1.57851 0.33165,2.79335 -1.78575,2.8238 -1.50785,3.38191 2.73889,5.50046 5.7651099,2.87601 75.75542,2.95939 76.85591,0.0915 0.39574,-1.03125 1.29648,-1.875 2.00165,-1.875 2.32021,0 6.11276,-5.49406 5.4753,-7.93176 -0.34225,-1.30874 0.67283,-7.36579 2.25572,-13.46009 1.58288,-6.0943 2.62056,-12.42707 2.30596,-14.07282 -0.62259,-3.25685 0.93202,-4.74394 5.48146,-5.24334 2.3364,-0.25648 2.93195,0.27557 2.93195,2.61931 0,1.61764 -0.55625,3.28494 -1.2361,3.70511 -0.76499,0.47279 -0.52691,1.84633 0.62461,3.60379 1.80719,2.75813 2.19448,6.84703 1.93855,20.4673 -0.10875,5.78994 0.17373,6.5625 2.39981,6.5625 2.80096,0 3.00191,-1.48344 2.54003,-18.75 -0.13792,-5.15625 0.22371,-8.90637 0.80366,-8.3336 0.57994,0.57276 1.11321,6.63155 1.18506,13.46395 0.0719,6.83241 0.49457,12.7865 0.93938,13.23133 0.44482,0.44481 2.22079,0.0531 3.94659,-0.87055 2.119584,-1.13438 2.913834,-2.38499 2.447604,-3.85397 -0.41232,-1.29906 0.24402,-2.84653 1.63012,-3.8434 1.27618,-0.91782 2.78259,-2.79376 3.34756,-4.16876 0.9709,-2.36286 1.07954,-2.32859 1.98059,0.625 0.91138,2.98745 0.95883,3.00121 1.07794,0.3125 0.13419,-3.02895 2.0172,-3.8015 3.04675,-1.25 0.37665,0.93343 0.67021,0.6818 0.72916,-0.625 0.14204,-3.14841 3.59923,-2.70115 4.07425,0.52709 0.54193,3.68297 3.52185,4.4403 4.39118,1.11599 0.87588,-3.34941 3.541,-2.63057 3.41568,0.92128 -0.0509,1.44312 0.37097,2.33737 0.9375,1.98722 0.56654,-0.35009 1.03008,-1.72838 1.03008,-3.06281 0,-1.33442 0.84375,-2.42622 1.875,-2.42622 1.03125,0 1.875,1.0918 1.875,2.42622 0,1.33443 0.5625,2.77388 1.25,3.19878 0.6875,0.4249 1.25,-0.35246 1.25,-1.72746 0,-1.375 0.61311,-2.87893 1.36247,-3.34205 0.90983,-0.5623 1.07532,-3.70147 0.49814,-9.44878 -0.59817,-5.95628 -0.44034,-8.60671 0.51253,-8.60671 0.90116,0 1.37686,3.91234 1.37686,11.32378 0,6.64958 0.47907,11.02767 1.16064,10.60646 0.63833,-0.39453 1.40466,0.2754 1.70293,1.48872 0.29827,1.21333 0.38633,0.79979 0.19569,-0.91896 -0.44337,-3.99736 9.36104,-20.15245 11.73048,-19.32873 0.9156,0.31831 9.76182,0.57873 19.65826,0.57873 l 17.99353,0 12.69618,17.1875 c 6.98292,9.45312 12.82182,17.34136 12.97534,17.52943 0.15353,0.18804 1.26636,-0.0369 2.47299,-0.49994 2.00212,-0.76829 2.14461,-2.6552 1.6304,-21.59193 -0.30989,-11.41254 -0.79474,-21.59381 -1.07744,-22.62506 -0.29106,-1.06178 0.29923,-1.875 1.361,-1.875 1.53901,0 1.79635,1.67992 1.43608,9.375 -0.6125,13.08215 1.25941,39.55859 2.38616,33.75 0.46676,-2.40625 0.99302,-3.67188 1.16946,-2.8125 0.17644,0.85937 0.46143,2.125 0.6333,2.8125 0.17188,0.6875 0.38281,2.09375 0.46875,3.125 0.10212,1.22578 1.48561,1.875 3.99554,1.875 4.10761,0 8.07445,-2.91479 6.79163,-4.99041 -0.46228,-0.74799 0.90153,-1.26736 3.3578,-1.27873 2.27496,-0.01 4.87203,-0.48576 5.77127,-1.05607 2.05423,-1.30283 0.75491,-7.20973 -1.8017,-8.1908 -1.42681,-0.54751 -1.52008,-1.25002 -0.43513,-3.27727 1.6112,-3.01055 1.17215,-9.33172 -0.64816,-9.33172 -0.6875,0 -2.09375,1.81595 -3.125,4.03545 -1.03125,2.21949 -2.57813,4.04761 -3.4375,4.0625 -2.51394,0.0435 -1.84178,-2.12723 2.7057,-8.7381 4.46467,-6.49049 7.21019,-15.91386 6.1868,-21.23485 -0.76108,-3.95715 2.20355,-8.1863 4.98924,-7.11733 1.39111,0.53382 2.05576,2.27253 2.05576,5.37779 0,2.70846 0.7965,5.17135 1.94371,6.0102 4.58494,3.3526 4.16795,9.20877 -2.04207,28.6782 -3.2584,10.21563 -5.47722,18.09063 -4.9307,17.5 0.54651,-0.59062 3.16417,-7.72945 5.81703,-15.86406 3.74209,-11.4746 5.00713,-14.13669 5.6431,-11.875 1.30151,4.62851 1.18862,12.2902 -0.18107,12.2902 -0.6875,0 -1.25,1.6875 -1.25,3.75 0,3.2936 0.43562,3.75 3.57933,3.75 2.96591,0 3.5288,-0.482 3.28453,-2.8125 -0.16215,-1.54687 -0.40612,-9.5625 -0.54219,-17.8125 -0.17402,-10.55138 -0.59966,-14.25856 -1.43518,-12.5 -0.97648,2.0552 -1.03299,1.94401 -0.31767,-0.625 2.58518,-9.28431 0.94077,-112.53848 -1.80686,-113.45435 -0.90926,-0.30309 -1.51196,-2.95381 -1.51196,-6.64981 0,-4.4478 -0.48571,-6.14584 -1.75798,-6.14584 -1.12156,0 -1.52948,-0.87372 -1.12682,-2.4135 0.34712,-1.32744 1.33599,-2.14304 2.19747,-1.81245 1.34482,0.51605 1.84459,-3.52181 0.88298,-7.13401 -0.10763,-0.40423 -2.24401,-0.81198 -4.74758,-0.90609 -7.52951,-0.28306 -7.12503,-1.47295 1.11443,-3.27836 2.38606,-0.52283 3.4375,-1.53639 3.4375,-3.31364 0,-2.04186 0.53802,-2.38966 2.65654,-1.71726 1.78767,0.56737 2.37678,0.39051 1.80122,-0.54078 -1.14587,-1.85407 0.90744,-1.76871 2.79224,0.11613 1.96483,1.96484 1.93548,3.91669 -0.0405,2.69545 -2.58255,-1.59613 -5.9595,-1.37602 -5.9595,0.38841 0,2.07026 1.52354,2.14256 3.5,0.1661 1.07563,-1.07564 1.5,-1.09761 1.5,-0.0777 0,0.78227 0.98437,1.44039 2.1875,1.46246 1.20312,0.0221 4.07261,0.4105 6.37663,0.86315 4.83293,0.94948 3.07029,2.95121 -2.62663,2.98294 -3.17389,0.0176 -3.4375,0.40256 -3.4375,5.01914 0,3.61111 0.52083,5 1.875,5 1.03125,0 1.875,0.5625 1.875,1.25 0,0.6875 -0.48092,1.25 -1.0687,1.25 -4.28048,0 -3.58323,109.00192 0.80173,125.33757 1.42553,5.31061 13.7779,34.44423 15.62403,36.84993 1.66891,2.17477 3.46636,1.95831 2.59497,-0.3125 -0.55761,-1.4531 0.29502,-1.875 3.78923,-1.875 2.47981,0 4.44212,-0.42188 4.36071,-0.9375 -0.50744,-3.21378 0.54631,-4.0625 5.04386,-4.0625 2.74708,0 5.17255,-0.68578 5.52632,-1.5625 0.34676,-0.85938 0.67488,0.26562 0.72916,2.5 0.10962,4.51197 0.96966,4.93322 4.54727,2.22725 2.80703,-2.12313 4.80052,-2.48358 3.67642,-0.66475 -0.4249,0.6875 0.10437,1.25 1.17622,1.25 1.25271,0 2.00755,-1.22782 2.11333,-3.4375 0.14345,-2.99654 0.26432,-2.87628 0.94237,0.9375 0.73716,4.14632 1.02996,4.36688 5.60191,4.21987 2.65325,-0.0854 5.29042,-0.90965 5.86037,-1.83184 0.56995,-0.9222 2.89691,-1.74163 5.17103,-1.82097 l 4.13477,-0.14425 -4.88643,4.7886 -4.88641,4.78859 6.90491,0 6.90491,0 2.12418,-8.73965 c 1.1683,-4.80682 1.78617,-9.28654 1.37307,-9.95495 -1.51602,-2.45299 -1.14075,-19.62517 0.51632,-23.62568 1.39785,-3.37467 1.40935,-6.42094 0.0682,-18.05712 -0.88733,-7.69868 -1.57015,-15.82573 -1.51739,-18.0601 0.0528,-2.23438 -0.52035,-4.0625 -1.27356,-4.0625 -2.72224,0 0.57822,-1.87644 3.39692,-1.93128 l 2.89228,-0.0562 -0.57268,15.99378 c -0.38695,10.8052 -0.14234,15.99381 0.75395,15.99381 0.72968,0 1.32668,-0.84375 1.32668,-1.875 0,-2.82975 3.88621,-2.24911 4.6563,0.6957 0.46313,1.77105 1.3016,2.31602 2.69547,1.75197 4.66824,-1.88905 22.20913,-6.77226 24.4134,-6.79644 6.05234,-0.0664 16.77388,9.47936 19.7774,17.60853 0.75589,2.04587 6.0374,3.61524 12.1666,3.61524 3.24803,0 3.44633,-0.36923 4.53125,-8.4375 1.0527,-7.82861 1.37069,-8.46489 4.40639,-8.81704 2.94354,-0.34146 3.6299,0.44242 6.84066,7.8125 1.96286,4.50563 3.9911,8.19204 4.50719,8.19204 1.10494,0 -0.19096,-23.50975 -1.44694,-26.25 -0.47267,-1.03125 -0.74366,-3.98438 -0.60221,-6.5625 l 0.25717,-4.6875 -5.16383,-0.0879 c -3.91547,-0.0666 -4.55947,-0.33305 -2.66385,-1.1021 2.20618,-0.89504 2.05927,-1.08307 -1.25,-1.59986 -3.39299,-0.52985 -3.29523,-0.60343 1.02678,-0.7729 4.24603,-0.16647 4.56845,-0.39562 2.90179,-2.06228 -1.03125,-1.03125 -3.74331,-1.95483 -6.02679,-2.05239 -4.09216,-0.17481 -4.07998,-0.19022 0.84822,-1.0726 2.75,-0.49238 4.01562,-0.97506 2.8125,-1.07261 -1.20313,-0.0976 -2.1875,-0.66724 -2.1875,-1.26593 0,-1.8521 -14.62775,-2.94137 -17.7846,-1.32436 -2.6749,1.37016 -2.71944,1.32808 -0.76452,-0.72234 1.56155,-1.6378 4.10924,-2.17726 10.28244,-2.17726 8.03911,0 8.14978,-0.0446 5.42411,-2.18402 -1.53033,-1.20122 -5.17545,-2.587 -8.10025,-3.07953 -2.9248,-0.49251 -5.0405,-1.34419 -4.70156,-1.89261 0.67245,-1.08804 -3.49731,-2.48713 -7.4934,-2.51428 -1.38202,-0.01 -3.94536,1.31132 -5.6963,2.93488 -1.75094,1.62356 -4.41707,3.6121 -5.92472,4.41897 -2.60797,1.39574 -2.7412,1.22548 -2.7412,-3.50316 0,-2.73361 0.54101,-5.30456 1.20223,-5.71322 0.6792,-0.41978 0.77759,-1.94735 0.22615,-3.51128 -1.72376,-4.88875 -0.30838,-7.02876 5.8485,-8.84272 3.21647,-0.94765 6.01653,-1.29145 6.22238,-0.76399 0.20584,0.52745 2.54451,0.66791 5.19706,0.31212 3.83541,-0.51443 5.27598,-0.11762 7.03621,1.9382 1.21738,1.42179 2.61557,2.33653 3.1071,2.03274 0.49153,-0.30377 1.29553,0.99066 1.78668,2.87654 l 0.89299,3.42886 1.17953,-3.09491 c 0.96188,-2.52379 1.39484,-2.75446 2.34622,-1.25 0.64166,1.0147 1.17528,1.43696 1.18581,0.93835 0.01,-0.49861 1.42539,-0.3719 3.14414,0.28156 1.71875,0.65346 3.125,0.76008 3.125,0.23691 0,-0.52316 1.125,-0.9512 2.5,-0.9512 3.02736,0 3.03513,0.0608 0.40202,3.13597 -1.15389,1.34763 -2.56014,2.16462 -3.125,1.81552 -0.56486,-0.34911 -1.02702,-0.039 -1.02702,0.68903 0,0.72807 0.58228,1.32377 1.29397,1.32377 0.87731,0 0.86315,0.80501 -0.044,2.5 -1.06789,1.99538 -0.95061,2.5 0.58103,2.5 1.2012,0 1.91897,-1.14127 1.91897,-3.05122 0,-3.89284 2.43305,-5.44094 4.37573,-2.78418 0.82306,1.1256 1.94185,1.63341 2.48621,1.12848 0.54436,-0.50494 0.62075,0.76942 0.16974,2.83192 -0.68692,3.14129 -0.56328,3.43826 0.76165,1.8295 0.86992,-1.05627 2.56605,-1.71815 3.76917,-1.47084 2.56971,0.52822 2.63114,0.85174 0.80844,4.25749 -1.05884,1.97846 -0.98628,2.82568 0.3125,3.64868 1.27075,0.80523 1.06962,1.08348 -0.80844,1.11848 -1.63647,0.0305 -0.77296,0.83222 2.5,2.32104 2.75,1.25095 5.772,3.20735 6.71555,4.34755 2.99643,3.62091 6.97266,2.5835 8.73055,-2.27783 0.86533,-2.39301 2.24395,-4.22113 3.06362,-4.0625 1.11971,0.21671 1.45758,-6.39438 1.35881,-26.58657 -0.098,-20.02244 0.11112,-24.16585 0.8202,-16.25 0.52342,5.84375 1.07785,17.9375 1.23205,26.875 0.36047,20.89426 0.63726,22.25736 4.14592,20.41795 2.5956,-1.36075 2.61182,-1.32606 0.4958,1.06109 -3.16917,3.57529 -2.71003,4.45937 1.80133,3.46851 l 3.98882,-0.8761 -3.36382,3.99769 c -4.44878,5.28706 -4.27214,7.28475 0.69867,7.90161 l 4.0625,0.50416 -4.55376,0.20004 c -2.86089,0.12569 -4.83582,0.9351 -5.3125,2.17729 -1.21231,3.15924 -0.83877,19.71467 0.49126,21.77276 0.88049,1.36246 1.21695,1.42771 1.23087,0.23873 0.01,-0.89995 0.52882,-1.32127 1.15178,-0.93625 0.62297,0.38501 0.8386,1.82445 0.47922,3.19877 -0.35939,1.37431 -0.12338,2.49875 0.52445,2.49875 1.62765,0 6.61368,-5.46031 6.61368,-7.24276 0,-0.80116 0.90483,-3.71803 2.01073,-6.48194 3.27824,-8.19311 9.09556,-6.90436 19.86427,4.40066 4.72912,4.96465 7.12144,6.55523 9.83113,6.5364 3.491,-0.0242 3.56075,-0.15462 2.77129,-5.18111 -0.95738,-6.09561 -1.40849,-13.21771 -3.92905,-62.03125 -1.04725,-20.28125 -2.96254,-49.8125 -4.25622,-65.625 -1.29367,-15.8125 -2.7364,-34.33801 -3.20606,-41.16781 -0.85241,-12.39575 -1.84917,-13.40992 -3.76639,-3.83219 -0.55048,2.75 -1.1148,5.42187 -1.25403,5.9375 -0.13924,0.51563 -0.34058,2.20312 -0.44743,3.75 -0.16876,2.44341 -0.35419,2.53843 -1.41295,0.72401 -0.80091,-1.37253 -0.7704,-3.26761 0.089,-5.52806 0.71925,-1.89176 1.00554,-4.22706 0.63619,-5.18956 -0.36935,-0.9625 -0.1893,-2.69363 0.4001,-3.84694 0.5894,-1.15333 1.40317,-4.252 1.8084,-6.88595 0.62885,-4.08753 0.47122,-4.56863 -1.07611,-3.28445 -2.80233,2.32573 -2.36212,-4.03556 0.72085,-10.41654 2.38078,-4.92766 2.40408,-5.33901 0.38608,-6.81461 -1.68729,-1.23383 -1.75543,-1.5704 -0.3179,-1.5704 1.54789,0 1.69284,-2.06958 0.94114,-13.4375 -0.48871,-7.39063 -1.51892,-23.28125 -2.28935,-35.3125 -2.32325,-36.28004 -4.14352,-46.36909 -9.37565,-51.96519 -0.68915,-0.7371 -2.65926,-3.40512 -4.37801,-5.92895 -1.71875,-2.52382 -3.54688,-4.59262 -4.0625,-4.59732 -0.51563,-0.005 -0.9375,-0.78342 -0.9375,-1.73049 0,-0.94706 -0.89216,-2.46236 -1.98259,-3.36734 -1.09042,-0.90497 0.92358,4.13716 4.47555,11.20473 3.55198,7.06757 6.21179,13.09647 5.91071,13.39755 -0.81511,0.81511 -2.71603,-1.87367 -6.54052,-9.25127 -1.88554,-3.6373 -3.68386,-6.35768 -3.99625,-6.04528 -0.3124,0.3124 2.28336,6.2415 5.76834,13.17577 3.48498,6.93429 5.84041,12.60779 5.23428,12.60779 -0.60612,0 -1.43951,-0.8794 -1.85196,-1.95423 -0.41245,-1.07482 -1.31637,-1.60412 -2.00874,-1.17623 -0.69235,0.4279 -1.27396,0.32293 -1.29245,-0.23327 -0.0185,-0.55619 -1.77178,-2.98002 -3.8962,-5.38627 -3.62576,-4.10678 -3.7269,-4.1451 -1.64968,-0.625 1.21708,2.0625 2.97037,4.85954 3.8962,6.21564 2.77027,4.05775 1.92272,4.75007 -2.21135,1.80635 l -3.89467,-2.77324 1.47644,2.75874 c 0.81203,1.5173 2.18963,3.03241 3.06133,3.36691 0.87168,0.3345 1.5849,1.44648 1.5849,2.47106 0,1.28198 -0.40279,1.46009 -1.29168,0.5712 -1.8955,-1.8955 -3.29166,-1.57657 -3.29166,0.75192 0,1.48698 -0.70816,1.14328 -2.60009,-1.26192 -1.43006,-1.81801 -3.07734,-3.01052 -3.66064,-2.65003 -0.5833,0.3605 -1.34392,-0.61852 -1.69028,-2.17559 -0.34637,-1.55708 -0.4723,-0.86229 -0.27985,1.54396 0.19245,2.40625 0.78587,5.38238 1.31873,6.61361 0.68123,1.57408 0.46648,2.13068 -0.72342,1.875 -1.13913,-0.24476 -2.11336,1.79122 -2.98056,6.22881 -1.24537,6.37269 -1.36559,6.51853 -3.60663,4.375 -2.24509,-2.14739 -2.29111,-2.05951 -1.45727,2.78258 0.80133,4.65333 0.72985,4.82666 -1.03098,2.5 -1.0406,-1.375 -1.59309,-3.72487 -1.22773,-5.22195 0.36535,-1.49707 0.13507,-3.66762 -0.51177,-4.82345 -0.83395,-1.49019 -1.21803,0.3619 -1.32035,6.36704 -0.0794,4.65767 -0.58528,8.91004 -1.12424,9.44967 -0.53896,0.53965 -0.89662,-1.2435 -0.79481,-3.96252 0.10187,-2.71904 -0.32006,-5.25593 -0.9375,-5.63752 -0.61744,-0.3816 -1.12261,0.18313 -1.12261,1.25495 0,1.07183 -0.66972,1.80815 -1.48827,1.63628 -0.81855,-0.17188 -1.65752,0.8125 -1.86438,2.1875 -0.37613,2.5 -0.37613,2.5 0.7754,0 0.77571,-1.68408 1.17396,-1.88806 1.22025,-0.625 0.0377,1.03125 -0.46834,2.71875 -1.12474,3.75 -0.93583,1.47026 -1.37204,0.98871 -2.02079,-2.2309 -0.45504,-2.25825 -1.13749,-3.79576 -1.51655,-3.41669 -0.37907,0.37908 -1.4936,-1.14827 -2.47674,-3.3941 -2.49298,-5.69486 -3.10222,-2.84486 -1.06815,4.99674 0.93377,3.59972 1.2426,6.54495 0.6863,6.54495 -0.55628,0 -0.20957,2.27274 0.77049,5.05051 2.16364,6.1324 -0.087,5.33496 -2.71859,-0.96321 -1.00138,-2.39664 -2.11706,-4.06115 -2.47928,-3.69893 -0.36223,0.36223 0.15418,2.5324 1.14756,4.82262 4.30437,9.92355 4.63125,11.03901 3.2349,11.03901 -1.30633,0 -1.16858,1.27612 0.74211,6.875 0.57288,1.67872 0.22339,1.47341 -1.06389,-0.625 -1.05437,-1.71875 -1.93698,-2.59561 -1.96133,-1.94859 -0.0244,0.64703 -0.74743,0.35904 -1.6068,-0.63996 -0.85938,-0.99901 -1.42675,-1.58015 -1.26085,-1.29143 0.16591,0.28873 -0.39659,1.38782 -1.25,2.44242 -1.2856,1.58868 -1.23017,1.73771 0.32335,0.86912 1.4701,-0.82194 1.55868,-0.7059 0.41017,0.53738 -0.80565,0.87213 -1.18917,2.30401 -0.85227,3.18193 0.33688,0.87794 0.0645,1.93495 -0.60534,2.34894 -0.66983,0.41398 -0.91138,1.92466 -0.53679,3.3571 0.53234,2.03568 0.94193,2.24013 1.87556,0.93625 0.89495,-1.24984 1.01865,-1.12121 0.49327,0.51295 -0.95373,2.96648 3.80137,13.84731 5.57298,12.75239 0.75782,-0.46835 1.12163,-2.19186 0.80847,-3.83003 -0.31315,-1.63816 -0.15045,-2.97847 0.36156,-2.97847 0.51202,0 1.19976,1.40625 1.52832,3.125 0.32857,1.71875 0.0798,3.125 -0.55305,3.125 -0.63273,0 -0.72381,0.69029 -0.20238,1.53396 0.52142,0.84369 1.63922,4.92181 2.48401,9.0625 0.84477,4.1407 1.92321,8.79416 2.39651,10.34104 1.23566,4.03844 -1.69345,3.60014 -3.24694,-0.48586 -0.68971,-1.8141 -0.96578,-3.5866 -0.61348,-3.9389 0.3523,-0.3523 -0.33509,-1.441 -1.52753,-2.41934 -1.19244,-0.97834 -1.46495,-1.42264 -0.60557,-0.98733 2.6797,1.35738 1.72712,-2.35703 -2.1875,-8.52976 -2.0625,-3.25222 -3.76252,-6.31547 -3.7778,-6.80722 -0.0373,-1.19769 -4.90893,-7.3834 -4.9444,-6.27804 -0.0152,0.47633 1.11726,2.80678 2.51677,5.17878 1.39951,2.37201 2.38389,5.07603 2.1875,6.00895 -0.19639,0.93292 0.23651,1.59211 0.962,1.46486 0.7255,-0.12725 1.94374,1.42354 2.7072,3.4462 0.98331,2.60505 0.99235,3.43294 0.031,2.8388 -0.8768,-0.54189 -1.06074,-0.0664 -0.5197,1.34354 0.46059,1.20026 0.83743,3.57573 0.83743,5.27882 0,1.7031 0.51003,2.78133 1.13342,2.39605 0.62339,-0.38527 0.83903,0.42527 0.47921,1.80123 -0.6797,2.59915 -2.86263,3.49741 -2.86263,1.17795 0,-0.72808 -0.49402,-1.01845 -1.09782,-0.64529 -1.1504,0.71098 -2.65218,-4.98669 -2.65218,-10.06219 0,-1.63281 -0.5957,-2.96875 -1.32378,-2.96875 -0.72807,0 -0.97887,-0.55805 -0.55734,-1.2401 0.42153,-0.68205 0.15557,-2.22893 -0.59103,-3.4375 -1.01033,-1.63549 -1.26737,1.87815 -1.00515,13.7404 0.19376,8.76579 -0.0696,15.93766 -0.5852,15.9375 -0.51563,-1.6e-4 -0.97547,-0.42217 -1.02187,-0.9378 -0.47232,-5.24893 -1.39482,-10.31955 -2.42176,-13.31153 -0.68412,-1.99322 -1.24387,-5.26078 -1.24387,-7.26127 0,-2.00049 -0.51512,-3.31889 -1.1447,-2.92978 -0.62959,0.38911 -0.48897,-1.05448 0.3125,-3.20797 l 1.4572,-3.91542 0.74976,5.46923 0.74975,5.46924 0.37525,-5.3125 c 0.20637,-2.92187 0.43149,-6.01563 0.50024,-6.875 0.0688,-0.85938 -0.57813,-1.42187 -1.4375,-1.25 -0.97869,0.19574 -1.5625,-1.12203 -1.5625,-3.52679 0,-2.1116 -0.78225,-4.62154 -1.73834,-5.57762 -1.48445,-1.48444 -1.81474,-1.33448 -2.26148,1.02678 -0.28773,1.52083 -0.48986,5.99888 -0.44917,9.95123 0.0541,5.25342 -0.38221,7.18649 -1.62225,7.1875 -0.94629,7.9e-4 -1.39723,-0.7778 -1.01994,-1.761 1.04791,-2.73081 -1.78845,-10.5124 -5.15629,-14.14636 -1.67081,-1.80284 -3.14131,-3.88277 -3.2678,-4.62206 -0.47021,-2.74843 -3.39523,-7.01753 -4.38782,-6.40408 -0.5652,0.34932 -1.02584,-1.1818 -1.02364,-3.40249 0.008,-8.10887 -0.34541,-9.66261 -2.19827,-9.66261 -1.03125,0 -1.875,0.5625 -1.875,1.25 0,0.6875 0.5957,1.25 1.32377,1.25 0.72808,0 0.97613,0.5625 0.55123,1.25 -0.4249,0.6875 -0.13667,1.25 0.64051,1.25 0.84544,0 0.65987,0.75319 -0.46194,1.875 -2.46311,2.46311 -3.41796,2.37758 -2.42234,-0.21701 0.62619,-1.63181 0.30369,-1.90049 -1.46602,-1.22139 -1.73084,0.66419 -1.96473,0.49335 -0.98636,-0.72049 0.70536,-0.87511 1.67336,-3.41923 2.15112,-5.65361 0.47776,-2.23438 1.41966,-4.0625 2.09311,-4.0625 0.67345,0 0.80204,0.70312 0.28574,1.5625 -0.56552,0.94131 -0.0434,0.83524 1.31329,-0.26681 1.35926,-1.10413 1.69906,-2.01363 0.85716,-2.29427 -0.76716,-0.25572 -0.99987,-1.12003 -0.51712,-1.92068 0.48276,-0.80065 -1.34187,0.48383 -4.0547,2.85443 -2.71285,2.37059 -4.79858,4.74098 -4.63495,5.26752 0.16363,0.52653 -0.46289,0.66555 -1.39225,0.30891 -0.93664,-0.35941 -3.81974,1.59934 -6.46863,4.39471 -2.62837,2.77371 -5.01936,4.80261 -5.31332,4.50865 -0.80775,-0.80774 4.80551,-11.89174 6.11321,-12.07121 0.62616,-0.086 1.65411,-0.22656 2.28432,-0.3125 0.6302,-0.086 1.61458,-0.625 2.1875,-1.19791 0.57292,-0.57293 0.19792,-0.85418 -0.83333,-0.625 -1.92915,0.4287 -2.02435,-0.27332 -0.62154,-4.58334 0.5697,-1.75039 -0.27314,-1.28188 -2.81093,1.5625 -1.99352,2.23437 -4.63662,4.0625 -5.87353,4.0625 -2.06984,0 -2.09548,-0.22398 -0.32199,-2.8125 1.05981,-1.54688 2.53467,-2.67188 3.27746,-2.5 1.48845,0.34441 1.82295,-1.2984 0.52804,-2.59333 -0.45238,-0.45236 -1.51168,-0.25051 -2.35403,0.44858 -1.07813,0.89477 -1.74092,0.72539 -2.23885,-0.57219 -0.47682,-1.24259 -0.117,-1.61674 1.10403,-1.14816 1.02997,0.39524 1.8196,-0.0366 1.83047,-1.00116 0.0155,-1.3683 0.21803,-1.38272 1.04784,-0.0746 0.80901,1.27535 1.40556,1.15738 2.79336,-0.55244 1.13832,-1.40243 1.21007,-1.84093 0.20217,-1.2354 -0.87805,0.52752 -1.5625,0.32653 -1.5625,-0.45882 0,-0.76865 -0.5625,-1.0499 -1.25,-0.625 -1.72382,1.06537 -1.57622,-1.04879 0.19702,-2.82202 1.09603,-1.09603 1.05153,-1.92357 -0.18347,-3.41164 -1.37495,-1.65673 -1.16094,-2.46444 1.36548,-5.15369 1.64778,-1.75399 2.84128,-3.28436 2.65222,-3.40085 -1.38982,-0.85631 1.88258,-8.87794 4.2562,-10.43319 3.07145,-2.01248 2.79601,-4.83685 -0.35382,-3.62815 -1.0127,0.38861 -1.47626,0.15027 -1.04978,-0.53977 0.42002,-0.67963 1.48608,-1.23569 2.369,-1.23569 1.5205,0 7.9729,-5.0329 13.74115,-10.71814 1.44705,-1.42622 3.61537,-2.95545 4.8185,-3.39827 1.20312,-0.44281 2.23053,-1.5259 2.28313,-2.40686 0.0526,-0.88095 0.28375,-2.58387 0.51367,-3.78427 0.22992,-1.2004 -0.18128,-2.55292 -0.91378,-3.00563 -0.78541,-0.48542 -0.96587,-0.23103 -0.43989,0.62003 0.49055,0.79378 0.29622,1.44319 -0.43186,1.44319 -0.72807,0 -1.32377,-0.84375 -1.32377,-1.875 0,-1.03125 -0.60268,-1.875 -1.33929,-1.875 -0.7366,0 -0.45535,-0.88393 0.625,-1.96429 2.35821,-2.35821 2.56086,-4.47277 0.40179,-4.1924 -4.24232,0.55089 -4.83827,-0.115 -4.12422,-4.60795 0.58707,-3.69394 0.37308,-4.38249 -1.17705,-3.78763 -1.62867,0.62497 -1.61066,0.29373 0.12838,-2.36037 2.30664,-3.52038 1.07952,-3.98942 -2.98648,-1.14148 -3.58212,2.50902 -3.56435,0.95493 0.0344,-3.00298 2.15123,-2.36595 2.31315,-2.91417 0.68867,-2.33172 -1.50667,0.54021 -1.92265,0.23721 -1.43153,-1.04265 0.38078,-0.99229 1.10214,-1.55089 1.60301,-1.24134 0.50088,0.30956 0.91069,-0.23143 0.91069,-1.20219 0,-0.97076 -0.55736,-1.42056 -1.23857,-0.99955 -0.74293,0.45915 -0.9565,-0.31319 -0.53369,-1.92999 0.71941,-2.75105 -0.77896,-3.72222 -2.19868,-1.42507 -0.43182,0.69871 -1.31795,0.9411 -1.96916,0.53862 -0.65121,-0.40246 -0.89176,-1.20462 -0.53457,-1.78258 0.3572,-0.57795 0.28256,-2.00691 -0.16585,-3.17545 -0.74098,-1.93097 -0.91792,-1.94124 -1.94117,-0.11275 -1.73551,3.1012 -3.49956,2.38687 -3.52078,-1.42568 -0.01,-1.89062 -0.54278,-4.26549 -1.18277,-5.27746 -1.02447,-1.61996 -1.23455,-1.61996 -1.75682,0 -1.60944,4.99205 -2.01306,5.15274 -1.48184,0.58996 0.67123,-5.76532 -1.21747,-3.51164 -2.1712,2.59076 -0.33014,2.11242 -1.74265,6.33117 -3.13891,9.375 l -2.53869,5.53419 -0.14961,-4.375 c -0.15271,-4.46536 -3.60435,-12.30064 -3.8546,-8.75 -0.0901,1.27951 -0.47334,1.08103 -1.20644,-0.625 -0.91862,-2.13777 -1.08701,-2.18305 -1.16214,-0.3125 -0.0483,1.20312 -0.65036,2.1875 -1.33786,2.1875 -0.6875,0 -1.30742,-0.98438 -1.37761,-2.1875 -0.15204,-2.60634 -1.9619,3.41856 -2.98688,9.94312 -0.51287,3.26474 -1.23967,4.43408 -2.46397,3.96427 -1.17609,-0.4513 -1.86724,0.44364 -2.14153,2.77297 -0.51908,4.40803 -2.72703,5.13598 -4.48866,1.47989 -0.85334,-1.77102 -1.41137,-2.13881 -1.47589,-0.97275 -0.0923,1.66666 -0.23837,1.66666 -1.31546,0 -0.67761,-1.04854 -1.22015,-1.23786 -1.23086,-0.42952 -0.0112,0.82748 -1.08796,1.16597 -2.51914,0.79171 -1.5801,-0.4132 -2.53232,-0.0251 -2.58786,1.05452 -0.0483,0.93956 -0.57128,0.58329 -1.16214,-0.79171 -1.02506,-2.38545 -1.07831,-2.37113 -1.16214,0.3125 -0.0501,1.60578 -0.87893,2.8125 -1.93161,2.8125 -1.37349,0 -1.68621,1.03616 -1.22611,4.0625 0.43559,2.86496 0.30809,3.35684 -0.43249,1.66864 -1.23475,-2.81469 -5.82122,-4.02885 -4.75862,-1.25974 1.25668,3.27486 -0.47875,5.62206 -3.11398,4.21172 -1.75644,-0.94001 -2.39794,-0.85266 -2.46291,0.33541 -0.0482,0.88356 -0.49268,0.57896 -0.98748,-0.67688 -0.80883,-2.05294 -1.07356,-1.95833 -2.62336,0.9375 -2.18334,4.0796 -4.77171,4.11898 -6.3013,0.0959 -1.75121,-4.60604 -2.10234,-3.87218 -1.64471,3.4375 l 0.41085,6.5625 -1.86745,-3.75 -1.86745,-3.75 0.59655,4.375 c 0.53242,3.9047 0.36147,3.73391 -1.59029,-1.58883 -2.1374,-5.82903 -2.23522,-5.90729 -4.32831,-3.46274 -1.17781,1.37559 -3.57245,5.32494 -5.3214,8.77631 -1.74895,3.45139 -3.46311,6.27526 -3.80925,6.27526 -0.34614,0 0.50709,-2.22759 1.89606,-4.9502 2.67204,-5.23763 3.17593,-9.58817 1.42963,-12.34307 -0.80227,-1.26562 -1.8879,-0.66224 -4.49818,2.5 -3.12155,3.78165 -3.01851,3.35669 1.11093,-4.58173 2.65728,-5.10837 3.5008,-7.52669 2.02675,-5.81068 -2.20068,2.56194 -2.62683,2.6736 -3.31905,0.86969 -0.70262,-1.831 -1.17109,-1.73753 -4.06299,0.81067 -2.67388,2.35609 -2.8723,2.40739 -1.09025,0.28189 3.61499,-4.3117 2.44994,-4.99246 -1.8362,-1.07294 -2.20811,2.01925 -3.19249,2.54637 -2.1875,1.17137 1.005,-1.375 2.53039,-2.94983 3.38976,-3.49962 0.85938,-0.54978 1.5625,-1.81379 1.5625,-2.8089 0,-2.12708 7.64065,-10.85632 12.58263,-14.37532 6.04788,-4.30648 3.58973,0.67661 -4.23382,8.58266 -5.8881,5.95019 -6.67768,7.22589 -4.57063,7.3846 1.46711,0.1105 2.3986,-0.47444 2.19693,-1.37964 -0.53077,-2.38244 7.9857,-10.90994 9.57693,-9.58933 0.90955,0.75484 1.3619,-0.8431 1.42735,-5.04219 0.0528,-3.381 -0.1623,-6.14726 -0.47778,-6.14726 -1.22972,0 -10.85867,9.37383 -10.56411,10.28421 0.17188,0.53119 -0.57142,0.96579 -1.65179,0.96579 -1.08035,0 -2.74833,0.70312 -3.70661,1.5625 -0.95829,0.85937 -2.47232,2.125 -3.36452,2.8125 -0.8922,0.6875 -2.6121,2.03268 -3.822,2.9893 -1.92735,1.52388 -2.10229,1.48517 -1.41245,-0.3125 0.4378,-1.14093 0.17303,-2.05183 -0.59639,-2.05183 -0.76106,0 -1.38374,-0.55586 -1.38374,-1.23526 0,-0.6794 1.20363,-1.10128 2.67471,-0.9375 1.47109,0.16377 2.96882,-0.54599 3.32828,-1.57724 0.5521,-1.58391 0.34187,-1.61776 -1.35414,-0.21801 -1.73105,1.42866 -1.98167,1.31138 -1.81879,-0.851 0.10388,-1.3794 0.5784,-2.40629 1.05443,-2.28199 0.86891,0.22689 1.11551,-0.4478 1.11551,-3.05205 0,-0.91386 -0.73494,-0.80491 -2.10785,0.3125 -1.81145,1.4743 -1.7792,1.15384 0.22935,-2.27898 1.28546,-2.19698 2.88341,-3.65694 3.55099,-3.24436 0.68601,0.42398 0.81125,0.0989 0.28804,-0.74773 -0.50917,-0.82384 -0.2664,-2.29237 0.53947,-3.26338 0.80588,-0.97101 1.15901,-2.26096 0.78474,-2.86654 -1.05586,-1.70843 2.94761,-6.65842 4.61329,-5.70396 0.81233,0.46548 1.05997,0.38601 0.55032,-0.17659 -0.50966,-0.56258 -0.30016,-1.77777 0.46555,-2.7004 0.99121,-1.19433 0.99939,-1.67751 0.0284,-1.67751 -0.7501,0 -1.04716,-0.98438 -0.66014,-2.1875 0.5737,-1.78343 0.46624,-1.85218 -0.58175,-0.37219 -0.707,0.99843 -1.04613,2.20253 -0.75365,2.67578 0.29248,0.47325 -1.01026,1.85281 -2.89498,3.06568 -3.34779,2.1544 -3.38092,2.15035 -1.43749,-0.17577 2.63107,-3.14918 6.52101,-17.07539 4.48535,-16.05776 -0.81105,0.40543 -0.62314,-0.007 0.41756,-0.91804 2.19376,-1.919 5.07104,-6.45335 7.16916,-11.29806 1.07632,-2.48527 1.09595,-3.62365 0.0734,-4.25564 -0.77584,-0.4795 -1.04996,-0.30288 -0.61706,0.39757 0.42842,0.6932 -0.57246,1.8761 -2.22419,2.62868 -1.65171,0.75257 -3.22939,0.97545 -3.50592,0.49529 -0.27655,-0.48018 -0.29924,-0.0861 -0.0504,0.87573 0.53197,2.05644 -3.04719,12.1585 -5.58067,15.75123 -1.76291,2.5 -1.76291,2.5 -1.1155,0 0.67855,-2.62025 1.61295,-7.43709 2.6673,-13.75 0.34448,-2.0625 1.1881,-5.68081 1.87472,-8.04069 0.68662,-2.35987 0.7725,-3.76612 0.19082,-3.125 -1.66799,1.83849 -3.94056,9.46184 -3.18505,10.68428 0.3761,0.60852 0.1328,1.10641 -0.54065,1.10641 -0.67345,0 -1.59616,1.69241 -2.05049,3.76091 -0.45431,2.0685 -1.2903,3.47396 -1.85773,3.12328 -0.56745,-0.3507 -0.71432,0.5761 -0.32639,2.05955 0.445,1.70166 0.22295,2.39906 -0.60156,1.88949 -0.75762,-0.46824 -2.48117,2.08546 -4.10074,6.07582 -3.85123,9.48881 -5.54571,10.12229 -4.59343,1.71723 l 0.7649,-6.75128 -2.40901,8.29011 c -2.16914,7.46441 -6.88989,17.33489 -8.29081,17.33489 -0.29985,0 -0.28963,-5.20313 0.0227,-11.5625 0.5628,-11.45877 0.55306,-11.50644 -1.08635,-5.3125 -1.18693,4.48436 -1.72911,5.36719 -1.91924,3.125 -0.18775,-2.21401 -0.43165,-2.4873 -0.83666,-0.9375 -0.3144,1.20312 -1.0929,2.1875 -1.72999,2.1875 -0.6371,0 -2.28335,1.125 -3.65835,2.5 -2.272,2.272 -2.50884,2.3005 -2.59687,0.3125 -0.26468,-5.97615 -4.73292,11.42761 -4.8941,19.0625 -0.1291,6.11464 -0.5083,7.99704 -1.25903,6.25 -0.83202,-1.9362 -1.0941,-1.30193 -1.16214,2.8125 -0.0484,2.92187 -0.50974,5.35554 -1.02536,5.40814 -0.51563,0.0526 -1.87004,0.27647 -3.00982,0.49748 -3.43906,0.66689 -4.1108,-6.60851 -1.78593,-19.34312 0.88658,-4.8564 2.32988,-8.68331 3.09622,-8.20969 0.46545,0.28766 0.82733,-1.54434 0.80415,-4.07113 -0.0231,-2.5268 0.94225,-6.5546 2.14538,-8.95067 1.20312,-2.39607 2.1875,-5.28032 2.1875,-6.40945 0,-1.12912 0.84375,-2.7532 1.875,-3.60906 1.03125,-0.85586 1.875,-2.44718 1.875,-3.53625 0,-1.08908 2.25,-5.18774 5,-9.10813 2.75,-3.92039 5,-7.70381 5,-8.40757 0,-0.70378 1.09623,-1.62751 2.43606,-2.05275 1.33983,-0.42525 2.82029,-1.9838 3.28992,-3.46344 0.46962,-1.47965 1.48276,-3.33144 2.25143,-4.1151 0.76868,-0.78365 3.79044,-4.0341 6.71503,-7.22321 2.92459,-3.18913 6.72146,-6.15079 8.4375,-6.58149 1.71604,-0.43069 3.12006,-1.3178 3.12006,-1.97135 0,-0.65354 0.56648,-0.83815 1.25883,-0.41025 0.69236,0.42789 1.5995,-0.10975 2.01588,-1.19485 0.41638,-1.08507 2.38115,-3.71146 4.36617,-5.83642 4.76717,-5.10328 4.66137,-7.57504 -0.12784,-2.98668 -4.8136,4.61171 -5.87658,3.54365 -1.87339,-1.88237 4.10724,-5.56704 3.95954,-7.42288 -0.28932,-3.63553 -1.86983,1.66671 -2.70387,2.11731 -1.85344,1.00133 0.85044,-1.11599 1.22144,-2.87549 0.82446,-3.91002 -0.4529,-1.18021 1.79736,-4.61536 6.04035,-9.22092 3.71918,-4.037 7.41498,-8.57931 8.2129,-10.09401 1.44974,-2.75209 1.44745,-2.75265 -3.24942,-0.807 -2.5851,1.07086 -5.54393,2.59142 -6.57518,3.37902 -1.61961,1.23694 -1.64751,1.14149 -0.20489,-0.70076 0.91857,-1.173 1.3503,-2.65021 0.95942,-3.28268 -0.39089,-0.63246 1.64268,-2.76648 4.51905,-4.74226 2.87636,-1.97577 7.49971,-5.67484 10.27411,-8.22015 2.95702,-2.71285 9.18916,-6.26659 15.06084,-8.58811 9.96905,-3.94153 10.09342,-3.95643 26.26647,-3.14676 8.9375,0.44743 19.32381,1.14015 23.08069,1.53935 6.19782,0.65857 6.67494,0.53813 5.14952,-1.29987 -1.1062,-1.33288 -1.44393,-3.79446 -0.98751,-7.19733 0.46511,-3.46772 0.14006,-5.72524 -0.98657,-6.85189 -1.30899,-1.30898 -1.82184,-1.33746 -2.3211,-0.12889 -0.35248,0.85324 -0.30987,-0.36425 0.0946,-2.70552 0.57345,-3.31873 0.37366,-4.03322 -0.90649,-3.24204 -1.2454,0.7697 -1.45851,0.28826 -0.88229,-1.99314 0.74277,-2.94075 0.71574,-2.9521 -1.20931,-0.50796 -1.93535,2.45722 -1.95736,2.45065 -1.28617,-0.38394 0.55297,-2.33535 0.35723,-2.61367 -1.02902,-1.4632 -1.39223,1.15545 -1.60098,0.80919 -1.11798,-1.85444 l 0.59391,-3.27518 -3.32494,2.17858 -3.32492,2.17858 0.54482,-4.66688 c 0.3446,-2.95178 0.0611,-4.48187 -0.77124,-4.16348 -1.54927,0.59258 -1.80957,-7.78787 -0.31365,-10.09823 0.71313,-1.10137 0.37762,-1.30841 -1.16253,-0.7174 -2.03808,0.78208 -2.04188,0.65505 -0.0649,-2.16745 3.07292,-4.38721 2.5699,-5.53735 -1.30997,-2.99517 l -3.41,2.23432 2.24877,-3.43204 c 2.21888,-3.38646 2.21475,-3.41383 -0.31188,-2.06163 -2.15881,1.15537 -2.43722,1.04883 -1.77421,-0.67893 0.67251,-1.75256 0.3969,-1.84089 -1.90314,-0.60995 -3.51222,1.87969 -3.57765,-0.15355 -0.20731,-6.44187 l 2.48222,-4.63129 -3.1886,1.2123 c -3.92412,1.49193 -4.27588,1.49892 -4.27588,0.0851 0,-0.61999 1.82812,-2.3437 4.0625,-3.83046 3.50125,-2.32977 3.63076,-2.58207 0.9375,-1.82623 -1.71875,0.48235 -3.96875,1.18639 -5,1.56451 -1.59383,0.5844 -1.62377,0.37849 -0.19962,-1.37312 0.92145,-1.13335 2.69762,-2.38508 3.94702,-2.78163 4.50461,-1.42971 3.73353,-3.8662 -1.07682,-3.40261 -3.1533,0.3039 -4.01795,0.0734 -2.82293,-0.75281 0.94745,-0.65499 1.3689,-1.76326 0.93653,-2.46283 -0.80481,-1.30222 8.7816,-5.13833 13.50099,-5.40257 2.35681,-0.13196 2.37669,-0.19958 0.22089,-0.7516 -1.9034,-0.48739 -2.02623,-0.8236 -0.625,-1.71085 1.18784,-0.75214 0.14954,-1.13839 -3.25606,-1.21126 -7.32143,-0.15668 -1.85287,-2.22385 6.25,-2.36258 4.70256,-0.0805 5.78576,-0.42725 4.375,-1.40049 -2.56313,-1.76818 14.36126,-0.6784 19.2486,1.23947 3.16351,1.2414 3.42692,1.18497 2.07462,-0.44447 -0.85195,-1.02652 -2.62319,-2.20735 -3.93611,-2.62405 -1.31291,-0.4167 -2.38711,-1.32014 -2.38711,-2.00764 0,-1.46371 5.4165,-0.0439 6.04166,1.58369 0.22917,0.59663 1.25107,1.08478 2.27091,1.08478 1.01983,0 3.78545,1.47301 6.14583,3.27336 2.36037,1.80035 4.2916,2.9866 4.2916,2.6361 0,-0.35049 -2.23347,-3.34005 -4.96324,-6.64345 -2.72978,-3.30341 -4.77904,-6.1904 -4.55391,-6.41554 1.19782,-1.19782 5.13712,2.00665 12.10567,9.84752 8.00003,9.00147 13.00439,12.2091 15.36503,9.84846 0.71305,-0.71305 2.73082,-1.363 4.48395,-1.44434 2.95861,-0.13727 2.91822,-0.20547 -0.5625,-0.94979 -4.50454,-0.96322 -4.93064,-3.11052 -0.73487,-3.70331 2.29245,-0.32389 2.59352,-0.68657 1.25609,-1.51315 -1.44379,-0.89231 -1.31209,-1.42491 0.73486,-2.97175 1.37165,-1.03654 3.48593,-1.90249 4.69838,-1.92436 1.21245,-0.0219 3.23692,-0.68454 4.49884,-1.47261 3.12057,-1.94883 8.47544,-0.40868 9.28031,2.66918 0.36154,1.38253 1.33268,2.51368 2.1581,2.51368 0.82541,0 1.1839,-0.82574 0.79661,-1.83496 -1.03758,-2.70392 1.81783,-3.88628 3.57662,-1.48102 0.83086,1.13629 2.0916,2.06598 2.80162,2.06598 0.71004,0 1.59799,0.80009 1.97324,1.77797 0.40296,1.0501 1.68429,1.51594 3.12992,1.13789 2.04193,-0.53397 2.58759,0.1882 3.29187,4.35674 0.46431,2.74825 1.62938,6.03307 2.58905,7.29961 0.95967,1.26654 1.76273,3.30481 1.78461,4.52951 0.0219,1.22472 0.8835,2.55052 1.91475,2.94624 1.0752,0.4126 1.875,2.27879 1.875,4.375 0,2.12788 0.79912,3.96215 1.91225,4.3893 1.24382,0.4773 1.63924,1.59399 1.1312,3.19468 -0.67998,2.14242 2.79929,7.24306 4.94066,7.24306 0.32375,0 1.2416,-3.1453 2.03968,-6.98956 1.58322,-7.62639 4.03272,-13.62762 8.47412,-20.76149 2.18615,-3.51145 4.56613,-5.24805 9.95611,-7.2647 6.61415,-2.47468 7.18579,-2.50986 8.63243,-0.53146 0.95464,1.30553 2.53132,1.86186 4.10811,1.44952 1.45035,-0.37927 2.24096,-0.15475 1.825,0.51829 -0.40362,0.65309 0.6166,2.99126 2.26718,5.19592 2.65463,3.54577 2.81526,4.3692 1.39147,7.13348 -1.46165,2.83776 -1.35423,3.19535 1.1686,3.89044 2.54865,0.7022 2.5888,0.84566 0.48588,1.73646 -1.80255,0.76355 -1.93608,1.19681 -0.625,2.02791 1.18117,0.74875 0.80265,1.06249 -1.29824,1.07605 -2.49364,0.0161 -2.71794,0.31751 -1.40945,1.89414 0.94641,1.14036 3.68469,1.875 6.98882,1.875 4.14093,0 5.27317,0.41577 4.76173,1.74856 -0.36904,0.96171 -0.0701,2.1199 0.66424,2.57378 2.5107,1.5517 1.33746,3.01905 -2.72729,3.41096 -2.23438,0.21544 -3.94286,0.9542 -3.79662,1.6417 0.14622,0.6875 -0.69753,1.68005 -1.875,2.20567 -1.17749,0.52563 1.37453,0.71962 5.67113,0.43108 4.29662,-0.28852 8.12669,-0.0155 8.51128,0.60682 0.38459,0.62229 -0.95256,1.13143 -2.97146,1.13143 -2.01889,0 -4.44272,0.93584 -5.38628,2.07965 -1.56872,1.90166 -1.45321,1.93981 1.3497,0.44575 1.80678,-0.96308 3.23061,-1.13783 3.46801,-0.42561 0.4735,1.42048 7.84174,0.58657 7.84174,-0.8875 0,-0.55218 -0.70313,-1.27475 -1.5625,-1.60573 -0.85938,-0.33096 -0.36464,-0.5445 1.0994,-0.4745 2.76007,0.13195 6.56595,-2.63157 19.10641,-13.87359 6.58775,-5.90563 11.96401,-10.0234 19.54756,-14.97177 5.8808,-3.83731 22.88202,-11.19659 27.60068,-11.94744 4.0247,-0.64044 5.54414,-0.3579 6.875,1.27834 1.47606,1.81476 1.43799,1.99936 -0.2799,1.35709 -1.0936,-0.40887 -2.7811,-0.24154 -3.75,0.37182 -1.28078,0.81079 -0.73801,1.17419 1.98835,1.33126 5.22659,0.30114 5.9323,0.22958 8.64255,-0.87633 1.68524,-0.68767 2.12536,-0.54394 1.48874,0.48613 -0.52986,0.85734 -0.16084,1.46243 0.89189,1.46243 0.98763,0 2.56771,0.93705 3.51127,2.08234 1.53769,1.86645 1.39048,2.00143 -1.41984,1.30201 -1.72446,-0.42918 -3.97446,-0.24985 -5,0.39852 -1.46855,0.92845 -1.20083,1.20448 1.26039,1.29952 3.07623,0.11875 3.06646,0.1488 -0.625,1.92336 l -3.75,1.80271 5.3125,-0.7641 c 3.29899,-0.4745 5.3125,-0.2773 5.3125,0.52031 0,0.70643 -2.10937,1.50507 -4.6875,1.77474 l -4.6875,0.49033 4.6875,0.21014 4.6875,0.21012 0,33.90246 0,33.90246 -2.8125,-2.04512 c -1.54687,-1.12481 -3.60952,-2.41464 -4.58365,-2.86626 -0.97414,-0.45164 -3.40094,-2.55307 -5.39289,-4.66984 -2.94248,-3.1269 -3.35506,-3.30459 -2.19986,-0.94744 1.38974,2.8357 1.35625,2.8561 -1.48212,0.90262 -1.59719,-1.09925 -4.59148,-4.20001 -6.65398,-6.89057 -4.66507,-6.08565 -7.61575,-7.56314 -4.32459,-2.16543 3.16379,5.18878 3.11608,6.86776 -0.11212,3.94625 -1.40895,-1.27509 -4.5175,-2.40312 -6.90788,-2.50673 -2.62163,-0.11362 -5.67018,-1.37856 -7.68305,-3.18789 -2.11485,-1.90101 -1.41613,-0.53636 1.90788,3.72628 2.88464,3.69917 5.23617,7.35542 5.22565,8.125 -0.0125,0.87891 -0.3948,0.80731 -1.02938,-0.19258 -0.55562,-0.87547 -2.23662,-1.82796 -3.73555,-2.11662 -1.49893,-0.28868 -3.42635,-0.95026 -4.28313,-1.4702 -0.85679,-0.51994 -0.0112,1.09814 1.8797,3.59572 4.80786,6.35139 4.28067,7.24646 -1.25,2.12229 -2.57813,-2.38862 -6.31072,-5.73716 -8.29465,-7.44117 l -3.60714,-3.09823 1.58026,3.125 c 0.86915,1.71875 2.29946,3.96875 3.17846,5 1.4618,1.71498 2.33472,5.2365 1.9745,7.96555 -0.0791,0.59981 -1.07977,0.31856 -2.22358,-0.625 -1.89558,-1.5637 -1.93987,-1.45326 -0.50029,1.2478 1.81024,3.39654 0.30592,2.92834 -4.51503,-1.40526 -3.2785,-2.94708 -6.02018,-1.91815 -4.15841,1.5606 2.21465,4.13812 1.35093,4.31447 -2.70691,0.55267 l -3.96029,-3.67136 2.71029,4.52254 c 3.73697,6.23575 3.3921,7.2234 -1.03971,2.97746 -2.0625,-1.976 -3.80979,-3.06561 -3.88288,-2.42136 -0.0731,0.64425 -0.2137,2.29636 -0.3125,3.67136 -0.12487,1.7382 -0.94142,2.3944 -2.67962,2.15344 -2.46942,-0.34234 -2.47024,-0.32317 -0.0672,1.56717 1.88796,1.48515 2.09792,2.24865 0.9375,3.40908 -1.85482,1.85481 -1.97439,3.93894 -0.16172,2.81864 0.75952,-0.4694 1.16309,-0.0255 0.9375,1.03105 -0.21785,1.0204 1.45854,4.17059 3.7253,7.00045 3.16038,3.94541 4.98649,5.14517 7.83133,5.14517 2.70619,0 5.27576,1.52186 9.4975,5.625 3.18316,3.09375 6.20465,5.625 6.71441,5.625 1.63334,0 14.96036,-9.06788 14.96036,-10.17921 0,-0.58894 0.42188,-1.00418 0.9375,-0.92277 2.19463,0.34653 3.99337,-0.25746 5.62452,-1.88861 2.91896,-2.91891 14.40987,-8.25941 17.77147,-8.25941 l 3.16655,0 0,14.5497 c 0,12.39093 -0.32456,14.79608 -2.1875,16.21024 -2.89847,2.20026 -4.49456,2.16896 -3.6349,-0.0712 0.45989,-1.19845 0.0944,-1.58083 -1.08028,-1.13008 -0.97643,0.3747 -1.65092,1.87788 -1.49883,3.3404 0.30506,2.93373 -2.34329,3.71402 -5.27003,1.5527 -1.4275,-1.05416 -1.62813,-0.87733 -0.97674,0.86082 0.45091,1.20312 0.31288,2.1875 -0.30672,2.1875 -0.61959,0 -1.4671,-1.07304 -1.88335,-2.38453 -0.41625,-1.31149 -1.61214,-2.71274 -2.65754,-3.1139 -1.5088,-0.57897 -1.77941,0.0404 -1.31237,3.00371 0.32359,2.0532 0.0754,4.05015 -0.5517,4.43768 -0.62703,0.38748 -1.14004,0.0757 -1.14004,-0.69299 0,-0.76865 -0.5625,-1.0499 -1.25,-0.625 -0.6875,0.4249 -1.25,0.17685 -1.25,-0.55122 0,-0.72808 -0.62268,-1.32378 -1.38374,-1.32378 -0.76105,0 -1.07574,0.80262 -0.6993,1.78361 0.74874,1.95118 -2.01848,4.9482 -3.34447,3.62222 -0.45236,-0.45238 -0.82249,-0.106 -0.82249,0.76957 0,0.90162 -0.81315,1.28004 -1.875,0.87256 -1.10642,-0.42457 -1.875,-0.015 -1.875,0.99925 0,1.06906 -0.89166,1.48556 -2.35893,1.10186 -3.17588,-0.83051 -4.82458,2.07687 -2.24668,3.96188 1.11448,0.81492 6.96603,2.48759 13.00347,3.71702 6.03743,1.22944 14.49276,3.33863 18.78964,4.68709 l 7.8125,2.45174 0,66.21537 c 0,44.53378 -0.41598,65.95828 -1.27039,65.43023 -0.69871,-0.43183 -0.94677,-1.30878 -0.55122,-1.94878 1.02448,-1.65766 -0.25769,-1.44537 -4.49047,0.74348 -3.50026,1.81005 -3.68792,1.77771 -3.68792,-0.63559 0,-2.25843 -0.30263,-2.36683 -2.70697,-0.9696 -4.37254,2.541 -7.29163,5.7888 -7.31217,8.13559 -0.0133,1.50766 -0.31891,1.71577 -0.98369,0.66964 -0.68435,-1.07694 -1.98048,-0.44148 -4.46181,2.1875 -3.47127,3.67781 -5.78536,4.71898 -5.78536,2.60297 0,-0.60631 2.5604,-3.84068 5.68976,-7.1875 3.12938,-3.34681 7.04069,-8.61636 8.6918,-11.71011 1.65113,-3.09375 3.02823,-4.88867 3.06024,-3.98873 0.0942,2.64984 2.5582,0.32978 2.5582,-2.40881 0,-1.50937 -0.54829,-2.16115 -1.38366,-1.64485 -0.95743,0.59171 -1.15438,-0.44451 -0.63933,-3.36372 l 0.74434,-4.21889 -2.56739,5 -2.56737,5 0.65986,-6.25 c 0.63202,-5.98636 0.59124,-6.09181 -0.96711,-2.5 -1.47754,3.40556 -1.70233,3.51774 -2.4473,1.22134 -0.45119,-1.39077 -0.26047,-4.4808 0.42381,-6.86675 1.84466,-6.43195 1.42537,-6.293 -1.94756,0.64541 l -3.03828,6.25 0.50904,-6.25 c 0.27997,-3.4375 0.8839,-7.375 1.34205,-8.75 1.86204,-5.58839 -2.95601,2.11414 -5.16506,8.25727 -2.77794,7.72519 -4.51214,8.08849 -1.9863,0.41612 1.3063,-3.96792 1.47951,-6.09914 0.56966,-7.00899 -0.90985,-0.90985 -2.15661,1.02169 -4.10024,6.35226 -2.62045,7.18683 -2.9013,7.50481 -4.54978,5.15125 -1.25859,-1.79687 -1.61295,-5.16259 -1.24927,-11.86559 0.27923,-5.14646 0.0244,-9.05852 -0.56621,-8.69348 -0.59065,0.36503 -1.09384,-0.35387 -1.1182,-1.59757 -0.0771,-3.94016 -3.48425,3.35525 -4.4431,9.51383 -0.73884,4.74544 -1.07564,5.23051 -2.38671,3.4375 -1.87004,-2.55743 -3.64764,-2.75023 -2.70485,-0.29336 0.37869,0.98683 0.077,1.9981 -0.67051,2.24725 -0.93982,0.31327 -0.86206,1.39851 0.25211,3.51826 1.57179,2.9904 1.55087,3.01184 -0.85668,0.87775 -1.3573,-1.20313 -3.05777,-2.1875 -3.77883,-2.1875 -0.72105,0 -2.01127,-0.84375 -2.86713,-1.875 -2.58279,-3.11206 -4.18757,-2.104 -1.98995,1.25 2.30535,3.51841 1.3182,4.01594 -2.56771,1.29414 -1.43766,-1.00699 -3.01595,-1.42887 -3.5073,-0.9375 -0.49135,0.49135 -0.70588,0.11987 -0.4767,-0.82539 0.22916,-0.94531 -0.14584,-1.93113 -0.83334,-2.19069 -0.7953,-0.30026 -1.09964,3.73523 -0.83666,11.09375 0.5095,14.25618 -0.70709,25.52194 -2.55639,23.67264 -0.71644,-0.71644 -1.25099,-3.87421 -1.1879,-7.01727 0.0819,-4.08127 -0.37841,-5.71468 -1.6105,-5.71468 -0.94887,0 -2.00894,-0.70313 -2.3557,-1.5625 -0.34676,-0.85938 -0.69277,-0.15625 -0.76892,1.5625 -0.13044,2.94454 -2.64572,7.5 -4.14108,7.5 -0.37486,0 -0.73819,-7.45312 -0.80739,-16.5625 -0.0692,-9.10938 -0.31575,-17.96875 -0.54787,-19.6875 -0.23211,-1.71875 -0.5099,-3.83289 -0.61731,-4.69809 -0.15693,-1.26412 -0.70207,-1.26412 -2.77557,0 -2.17578,1.32648 -2.51871,2.60216 -2.1875,8.13729 0.68802,11.49791 -1.71766,7.44668 -3.14452,-5.29547 -0.33864,-3.02408 -1.04991,-3.77987 -3.75276,-3.98762 -3.25704,-0.25033 -3.33493,-0.0881 -3.33493,6.9461 0,3.96135 0.81264,9.69327 1.80585,12.73761 1.8504,5.67168 5.28729,24.6695 7.44627,41.16018 1.9367,14.79275 3.20312,28.06942 3.87507,40.625 0.40473,7.5625 1.25942,18.53125 1.8993,24.375 0.63987,5.84375 1.53751,15.31819 1.99473,21.0543 0.45723,5.73611 0.96147,11.64236 1.12052,13.125 0.15906,1.48264 0.36098,4.0215 0.44873,5.64194 0.11225,2.07297 0.71528,2.73297 2.03453,2.22672 1.03125,-0.39572 1.875,-0.17465 1.875,0.49127 0,0.66592 1.49374,1.21077 3.31942,1.21077 l 3.31943,0 -3.63193,3.12348 c -1.99756,1.71791 -4.1147,3.12416 -4.70476,3.125 -1.08371,10e-4 -0.82649,5.82741 1.711,38.75152 1.83621,23.825 2.09734,26.47402 3.68409,37.37314 0.74051,5.08647 1.03031,10.99272 0.64402,13.125 -0.3863,2.13227 0.38344,9.22061 1.71054,15.75186 1.32709,6.53125 1.9658,12.4375 1.41935,13.125 -1.54091,1.93867 0.10625,13.125 1.93266,13.125 1.94244,0 3.09618,2.80535 3.09618,7.52846 0,1.9657 0.5625,3.92164 1.25,4.34654 0.6875,0.4249 1.25,1.40935 1.25,2.18769 0,0.77832 -0.82586,0.32325 -1.83525,-1.01128 -1.70895,-2.25945 -1.83798,-2.0666 -1.875,2.80249 -0.0384,5.05283 0.0915,5.22516 3.8596,5.11802 l 3.89934,-0.11087 -2.96184,-2.33765 -2.96185,-2.33764 3.75,0.82994 c 2.0625,0.45646 4.3125,1.15822 5,1.55946 2.59439,1.51414 4.30566,1.11249 5.03374,-1.18149 0.41395,-1.30422 0.40187,-2.93885 -0.0269,-3.6325 -0.4287,-0.69365 0.15768,-1.26118 1.30305,-1.26118 1.46726,0 1.83648,-0.64627 1.24971,-2.1875 -0.66772,-1.75394 -0.52081,-1.87782 0.74127,-0.625 0.86573,0.85937 2.41781,1.5625 3.44906,1.5625 1.45834,0 1.54166,-0.33334 0.375,-1.5 -2.0762,-2.0762 -1.87506,-4.3386 0.46555,-5.23679 2.58527,-0.99205 6.78445,1.31631 6.78445,3.72954 0,1.04763 0.49219,1.6006 1.09375,1.22881 0.60156,-0.37178 1.09375,-2.13466 1.09375,-3.91751 0,-1.78285 0.71534,-3.90249 1.58962,-4.7103 1.22495,-1.13179 1.38929,-1.11357 0.71634,0.0795 -0.58599,1.03881 -0.23506,1.30326 1.06661,0.80376 1.14049,-0.43765 1.9905,-2.36345 2.06265,-4.67319 0.11713,-3.75192 0.18752,-3.69356 1.5625,1.2968 1.77515,6.44276 3.95544,8.90008 2.69919,3.04214 -0.89025,-4.15119 -0.83915,-4.21674 2.66648,-3.42033 2.85925,0.64957 3.13658,0.5461 1.38661,-0.51731 -1.20313,-0.73111 -2.1875,-1.97634 -2.1875,-2.76717 0,-1.04934 0.40532,-1.03257 1.5,0.0621 2.10639,2.10639 3.21337,1.87229 4.08156,-0.86314 0.64294,-2.02571 1.18904,-2.15957 3.82449,-0.9375 1.69094,0.7841 3.07884,1.84752 3.0842,2.36314 0.005,0.51563 0.87329,0.9375 1.92872,0.9375 1.46209,0 1.63167,-0.53686 0.71223,-2.25485 -0.73743,-1.3779 -0.76198,-2.95789 -0.0631,-4.0625 0.90508,-1.43057 1.14764,-1.26442 1.16279,0.79651 0.0255,3.47367 1.29291,4.55722 3.34163,2.85694 1.39932,-1.16135 1.67756,8.27409 1.67756,56.88579 l 0,58.27805 -600.000004,0 -599.999996,0 0,-92.2508 z m 658.47566,52.05279 c -0.55661,-1.66983 -5.975664,-2.80564 -5.975664,-1.25248 0,1.69361 1.5147,2.70049 4.062504,2.70049 1.31771,0 2.17864,-0.6516 1.91316,-1.44801 z m 85.43348,-2.92699 c 0.43728,-2.0625 0.86162,-9.79687 0.94297,-17.1875 l 0.14789,-13.4375 -18.75,0 c -17.36506,0 -18.75,0.16969 -18.75,2.29725 0,2.04619 1.08579,2.28526 9.9348,2.1875 6.47455,-0.0715 10.4864,0.44091 11.5185,1.47125 1.27701,1.27484 -0.5864,1.5169 -9.6223,1.25 l -11.206,-0.331 -0.39552,3.4375 c -0.21754,1.89063 0.20433,3.4375 0.9375,3.4375 0.73316,0 1.33302,-0.84375 1.33302,-1.875 0,-2.54681 2.08864,-2.36799 3.64987,0.3125 1.00796,1.73055 1.28999,1.79582 1.35013,0.3125 0.0658,-1.62036 0.23066,-1.61079 1.2147,0.0705 0.81303,1.38911 2.94708,1.90449 7.46199,1.8021 5.62252,-0.12751 6.32331,0.14555 6.32331,2.46386 0,1.43399 0.82389,3.78353 1.83086,5.22119 1.00699,1.43766 1.58473,2.86008 1.28389,3.16093 -0.30085,0.30083 0.0358,2.65771 0.74812,5.2375 1.18728,4.29995 1.62637,4.6584 5.27315,4.30472 3.28273,-0.31837 4.11702,-1.04126 4.77312,-4.13581 z m 7.00773,-9.65446 c -0.26406,-2.94005 -0.48382,-0.84554 -0.48836,4.65446 -0.005,5.5 0.21152,7.90549 0.4801,5.34554 0.2686,-2.55995 0.27232,-7.05995 0.009,-10 z m 86.06513,11.84196 c -4.45032,-12.3939 -11.57707,-29.05775 -12.42824,-29.05985 -0.58918,-10e-4 -0.7298,0.8871 -0.3125,1.97459 0.41731,1.08747 0.75874,6.71247 0.75874,12.5 l 0,10.52276 3.4375,0.0879 c 3.04605,0.0779 3.15281,0.21018 0.9375,1.16213 -2.24663,0.9654 -2.16517,1.08319 0.80376,1.16214 1.81707,0.0484 3.62754,0.93161 4.02327,1.96286 1.02534,2.672 3.74197,2.36661 2.77997,-0.3125 z m -422.64376,-9.65074 c -0.90653,-9.67398 -2.08824,-11.9147 -2.08824,-3.95963 0,5.59808 1.56053,14.90401 2.36446,14.10007 0.33895,-0.33894 0.21464,-4.90214 -0.27622,-10.14044 z m 9.41176,8.71324 c 0,-1.16806 1.18153,-1.875 3.13373,-1.875 3.13198,0 3.13327,-0.005 2.31621,-9.0625 -0.93671,-10.38398 -2.73891,-16.70819 -2.8707,-10.07378 -0.11563,5.81869 -2.5741,6.54825 -2.60335,0.77255 -0.0132,-2.6187 -0.80671,-7.57377 -1.76323,-11.01127 -1.6627,-5.97538 -1.74318,-6.05776 -1.83175,-1.875 -0.051,2.40625 0.36313,5.09316 0.92017,5.97092 0.55702,0.87777 0.50586,5.37777 -0.11375,10 -1.19358,8.90486 -0.32144,19.02908 1.63926,19.02908 0.64537,0 1.17341,-0.84375 1.17341,-1.875 z m 5.6124,0.60461 c -0.43183,-0.69871 -1.30877,-0.94677 -1.94877,-0.55122 -1.7338,1.07154 -1.41052,1.82161 0.78515,1.82161 1.07182,0 1.59545,-0.57168 1.16362,-1.27039 z m 318.87811,-13.24618 c -0.33385,-7.98412 -0.91829,-14.82787 -1.29875,-15.20834 -0.94505,-0.94504 -0.88176,25.27532 0.067,27.74767 1.57253,4.09795 1.82148,1.56374 1.23178,-12.53933 z m 5.6745,3.89157 -1.11016,-7.5 -0.15243,7.08526 c -0.0839,3.8969 0.25284,8.11565 0.74815,9.375 1.5017,3.81817 1.7544,-0.58325 0.51444,-8.96026 z m 5.7303,0.9375 c -0.2864,-1.89063 -0.52074,-0.34375 -0.52074,3.4375 0,3.78125 0.23434,5.32813 0.52074,3.4375 0.28642,-1.89063 0.28642,-4.98437 0,-6.875 z m 3.67462,4.35121 c -0.34242,-0.84628 -0.60172,0.14879 -0.57624,2.21129 0.0255,2.0625 0.30562,2.75493 0.62255,1.53871 0.31692,-1.21621 0.29608,-2.90371 -0.0464,-3.75 z m 2.43528,1.92483 c -0.41536,-0.41537 -0.7108,0.32292 -0.65652,1.64062 0.06,1.45619 0.35617,1.75238 0.7552,0.75521 0.36108,-0.90233 0.31668,-1.98047 -0.0986,-2.39583 z m -466.7151,1.25555 c -2.24669,-0.2782 -5.62169,-0.27247 -7.5,0.0127 -1.87831,0.28522 -0.0401,0.51283 4.08489,0.50582 4.125,-0.007 5.6618,-0.24037 3.41511,-0.51857 z M 200.50305,830.6999 c -1.13885,-1.04672 -1.30628,-0.82695 -0.69282,0.90943 0.44494,1.25935 0.91534,5.19685 1.04533,8.75 l 0.23636,6.46026 0.45647,-7.36969 c 0.29008,-4.68364 -0.0909,-7.87276 -1.04534,-8.75 z m -388.41918,4.44669 c -2.42796,-0.61856 -3.4028,0.85986 -1.69382,2.56884 0.81354,0.81354 1.55321,2.63228 1.64371,4.04166 0.0905,1.40938 0.51238,0.59375 0.9375,-1.8125 0.54817,-3.10271 0.29011,-4.49801 -0.88739,-4.798 z m 124.072796,4.65636 c -1.22676,-1.98495 -2.8866,-1.16818 -2.69857,1.32791 0.13791,1.83082 0.58116,2.10627 1.78355,1.10837 0.88002,-0.73035 1.29179,-1.82668 0.91502,-2.43628 z m 370.712544,1.52538 c 0,-0.61395 -0.84375,-1.44004 -1.875,-1.83578 -1.90535,-0.73115 -2.55999,0.60038 -1.04167,2.1187 1.19462,1.19463 2.91667,1.02758 2.91667,-0.28292 z M -181.8776,829.3117 c 0.79516,-6.18316 1.72984,-13.49211 2.07706,-16.24211 l 0.63131,-5 -2.20908,3.03725 c -1.69528,2.33082 -2.33632,6.25575 -2.75611,16.875 -0.30086,7.61076 -0.24145,13.55295 0.13203,13.20486 0.37348,-0.34808 1.32962,-5.69183 2.12479,-11.875 z m -40.00319,10.14977 c 0,-1.02648 -7.64488,-1.54374 -8.25381,-0.55847 -0.35405,0.57288 1.35821,1.04159 3.80504,1.04159 2.44682,0 4.44877,-0.21741 4.44877,-0.48312 z m -133.6275,-9.29784 c 1.01091,-4.94285 0.48424,-5.01818 -1.9654,-0.28111 -2.30721,4.46165 -2.38379,5.4293 -0.37672,4.76028 0.8417,-0.28057 1.89565,-2.2962 2.34212,-4.47917 z m 498.23635,-2.42111 c -0.31286,-1.19512 -0.5575,0.0771 -0.54362,2.82707 0.0139,2.75 0.26986,3.72781 0.56885,2.17293 0.29898,-1.55489 0.28763,-3.80489 -0.0253,-5 z m -333.85364,2.54061 c -0.41536,-0.41536 -0.7108,0.32292 -0.65652,1.64062 0.06,1.45619 0.35617,1.75238 0.7552,0.75522 0.36108,-0.90234 0.31669,-1.98048 -0.0986,-2.39584 z m 337.43645,-2.16716 c 0.19215,-2.42165 -0.16612,-4.72158 -0.79615,-5.11095 -0.63229,-0.39078 -1.14551,1.93858 -1.14551,5.19913 0,6.68493 1.40932,6.62092 1.94166,-0.0883 z m -332.04035,-2.23388 c -0.0543,-3.60938 -0.3824,-5.85938 -0.72916,-5 -0.34676,0.85937 -1.42736,1.5625 -2.40131,1.5625 -2.13074,0 -2.19127,0.9209 -0.39855,6.06347 2.06295,5.91779 3.63986,4.74441 3.52902,-2.62597 z m 73.84869,1.48872 c 0,-2.23087 -0.52073,-3.50195 -1.25,-3.05122 -0.6875,0.4249 -1.25,2.1456 -1.25,3.82378 0,1.67817 0.5625,3.05122 1.25,3.05122 0.6875,0 1.25,-1.7207 1.25,-3.82378 z m 6.20602,1.40595 c 1.93657,-3.61851 1.57794,-5.08217 -1.24524,-5.08217 -2.80173,0 -4.37509,2.71584 -3.25874,5.625 0.99168,2.58431 2.95716,2.34742 4.50398,-0.54283 z m 5.02484,-1.09345 c -0.0165,-1.82158 -0.18661,-1.85458 -1.23086,-0.23872 -1.582,2.44796 -1.582,4.10273 0,3.125 0.6875,-0.4249 1.24139,-1.72372 1.23086,-2.88628 z m -317.74648,-5.80538 c 2.90408,-0.63784 4.38391,-2.26394 7.09034,-7.79122 2.86794,-5.85707 3.19353,-7.48281 2.01612,-10.06693 l -1.40418,-3.08183 -2.27843,2.94083 c -2.50357,3.23136 -15.27174,21.82675 -17.03933,24.81581 -0.60984,1.03125 0.9284,0.10075 3.41831,-2.06779 2.4899,-2.16854 6.17863,-4.30552 8.19717,-4.74887 z m 614.01562,1.81666 c 0,-0.6875 -0.5957,-1.25 -1.32378,-1.25 -0.72807,0 -0.97612,0.5625 -0.55122,1.25 0.4249,0.6875 1.0206,1.25 1.32378,1.25 0.30317,0 0.55122,-0.5625 0.55122,-1.25 z m -297.5,-6.67435 c 0,-1.37798 -4.84567,-4.57565 -6.93381,-4.57565 -0.3114,0 -0.56619,1.40625 -0.56619,3.125 0,2.63889 0.58334,3.125 3.75,3.125 2.30028,0 3.75,-0.6473 3.75,-1.67435 z m 601.875,-4.57565 c -0.4249,-0.6875 -1.30185,-1.25 -1.94878,-1.25 -0.64692,0 -1.17622,0.5625 -1.17622,1.25 0,0.6875 0.87695,1.25 1.94878,1.25 1.07182,0 1.60112,-0.5625 1.17622,-1.25 z m 0.7037,-8.60294 c -1.21419,-2.26875 -4.9339,-4.45852 -5.91204,-3.4804 -1.01364,1.01364 1.15074,4.4687 3.12726,4.99218 3.7902,1.00381 4.05434,0.86041 2.78478,-1.51178 z m -54.29489,-1.48626 c 2.53542,-1.42406 6.20877,-2.63466 8.16302,-2.69023 2.09677,-0.0596 3.55317,-0.7916 3.55317,-1.7858 0,-0.92662 0.62267,-1.68477 1.38373,-1.68477 0.76105,0 1.05997,-0.84375 0.66423,-1.875 -0.39573,-1.03125 -0.20391,-1.875 0.42625,-1.875 0.65842,0 0.58974,-1.59496 -0.16151,-3.75 -0.85323,-2.44756 -2.15872,-3.75 -3.75875,-3.75 -1.34833,0 -2.10385,-0.5625 -1.67895,-1.25 0.43556,-0.70476 -0.5773,-1.25 -2.32207,-1.25 -1.70203,0 -3.32677,-0.69651 -3.61053,-1.5478 -0.40099,-1.20296 -1.2283,-1.22322 -3.71337,-0.091 -2.95323,1.34557 -3.14792,1.249 -2.54938,-1.2647 0.57868,-2.43035 0.44271,-2.52093 -1.27078,-0.84655 -1.56559,1.52985 -1.7945,4.11846 -1.24351,14.0625 0.3714,6.70312 0.86277,12.1875 1.09194,12.1875 0.22916,0 2.49108,-1.16514 5.02651,-2.5892 z m 24.19705,-6.4733 c -0.015,-2.19589 -0.27091,-2.4145 -1.16752,-0.99719 -0.63161,0.99843 -0.87105,2.26405 -0.53209,2.8125 1.08421,1.75429 1.71929,1.07598 1.69961,-1.81531 z m 0.0191,-7.4375 c 0,-2.01928 -0.36964,-2.38036 -1.39109,-1.35891 -0.76509,0.76508 -1.01315,2.00258 -0.55122,2.75 1.29299,2.0921 1.94231,1.62705 1.94231,-1.39109 z m 87.54672,-18.55802 c -0.68308,-8.56184 -1.23601,-17.81698 -1.22872,-20.56698 0.008,-2.75 -0.5736,-9.1352 -1.29085,-14.18934 -0.71726,-5.05412 -1.62403,-13.75835 -2.01504,-19.3427 -0.39101,-5.58436 -0.97884,-10.58686 -1.30627,-11.11668 -0.32745,-0.52982 -0.82937,-4.48185 -1.11538,-8.78229 -1.56656,-23.55503 -2.18389,-29.46467 -3.24454,-31.05974 -0.76115,-1.14469 -0.95066,0.86075 -0.5425,5.74075 1.78053,21.28789 2.03694,31.875 0.772,31.875 -1.21373,0 -2.03789,-9.59974 -1.50242,-17.5 0.20465,-3.01926 0.14779,-3.0429 -1.68059,-0.69859 -1.05345,1.3507 -1.89241,1.73363 -1.89241,0.86373 0,-0.8748 -0.64374,-1.16483 -1.46243,-0.65885 -1.03576,0.64013 -1.16652,0.2058 -0.44821,-1.48874 0.55781,-1.3159 1.23283,-4.08005 1.50003,-6.14255 0.44776,-3.45621 -0.62583,-1.01515 -4.06441,9.24141 -0.32111,0.95778 -0.84679,1.47845 -1.16818,1.15705 -0.3214,-0.3214 0.24294,-3.7606 1.2541,-7.64267 1.01115,-3.88207 1.50038,-7.93932 1.08718,-9.0161 -0.4132,-1.07679 0.21801,-3.02887 1.4027,-4.33793 1.72937,-1.91092 1.98255,-3.62665 1.28431,-8.70344 -0.47833,-3.47783 -1.23878,-6.3077 -1.68989,-6.28858 -0.45111,0.0191 -2.26765,3.07918 -4.03675,6.80018 -2.41609,5.08182 -2.90539,7.32845 -1.96616,9.02777 1.1085,2.00557 1.0125,2.06762 -0.84595,0.54676 -2.51566,-2.05873 -2.842,-0.13839 -0.66709,3.92547 1.07232,2.00368 1.07232,2.78955 0,3.14699 -1.97354,0.65785 -1.78768,4.10495 0.51898,9.62554 2.35232,5.6299 1.51488,7.27974 -1.17536,2.31556 l -1.92277,-3.54801 -0.0457,3.125 c -0.0251,1.71875 0.76165,11.84375 1.74844,22.5 0.98678,10.65625 2.18193,26.125 2.6559,34.375 0.47395,8.25 1.36786,16.3436 1.98646,17.98577 1.40312,3.72488 21.47105,27.0156 21.97491,25.50399 0.20274,-0.6082 -0.19027,-8.11096 -0.87335,-16.67279 z m -116.29672,2.55802 c 0,-0.6875 -0.5625,-1.25 -1.25,-1.25 -0.6875,0 -1.25,0.5625 -1.25,1.25 0,0.6875 0.5625,1.25 1.25,1.25 0.6875,0 1.25,-0.5625 1.25,-1.25 z m 11.25,-7.45603 c 0,-0.66331 -1.125,-1.80809 -2.5,-2.54397 -1.93392,-1.035 -2.5,-0.95061 -2.5,0.37269 0,0.94085 0.375,2.08565 0.83333,2.54397 1.25874,1.25874 4.16667,0.99864 4.16667,-0.37269 z m 15.16146,-4.13251 c -2.03322,-2.03322 -3.194,-0.13042 -1.22506,2.00815 0.93059,1.01077 1.89201,1.27915 2.14173,0.59787 0.24921,-0.67993 -0.16328,-1.85263 -0.91667,-2.60602 z m -39.40621,-16.82292 c -0.41536,-0.41537 -0.7108,0.32292 -0.65653,1.64062 0.06,1.45619 0.35618,1.75238 0.7552,0.75521 0.36109,-0.90233 0.31669,-1.98047 -0.0986,-2.39583 z m -28.08433,-0.0733 c -0.9018,-0.3006 -2.23395,0.0477 -2.96032,0.77414 -0.92759,0.92758 -0.43955,1.09026 1.63964,0.54655 1.69025,-0.44202 2.25687,-1.00863 1.32068,-1.32069 z m 3.57912,-4.01529 c 2.28496,-1.47665 0.31136,-1.47665 -3.125,0 -1.64843,0.70835 -1.86133,1.09769 -0.625,1.143 1.03125,0.0377 2.71875,-0.47655 3.75,-1.143 z m -0.89952,-3.42484 c -0.80302,-0.26767 -1.15021,-1.29408 -0.77152,-2.28092 0.46397,-1.20913 -0.17036,-1.79424 -1.94523,-1.79424 -1.7206,0 -2.63373,0.79455 -2.63373,2.29166 0,3.13622 0.92658,3.80887 4.10263,2.9783 1.48934,-0.38946 2.05087,-0.92712 1.24785,-1.1948 z m 131.38646,-79.59873 c -0.43863,-1.43076 -1.03947,-2.86634 -1.33519,-3.19018 -1.11152,-1.21719 -2.86417,3.24717 -2.88261,7.34256 l -0.0191,4.25376 2.51723,-2.90238 c 1.64663,-1.8986 2.24141,-3.80208 1.71971,-5.50376 z m 12.84091,1.46112 c -0.34676,-0.85938 -0.63049,-0.15625 -0.63049,1.5625 0,1.71875 0.28373,2.42187 0.63049,1.5625 0.34676,-0.85938 0.34676,-2.26563 0,-3.125 z m -16.16957,-14.08731 c -0.85366,-4.11135 -2.09632,-8.31894 -2.76148,-9.35019 -0.66518,-1.03125 -1.04919,-2.84921 -0.85335,-4.03992 0.19582,-1.19071 -0.23166,-3.15945 -0.94996,-4.375 -1.01275,-1.71382 -1.26609,-0.7472 -1.12819,4.30471 0.0978,3.58313 0.60203,6.25262 1.12049,5.93218 0.51847,-0.32042 1.33497,1.7394 1.81445,4.57739 0.63352,3.7498 0.40758,5.4541 -0.82674,6.23618 -1.32543,0.8398 -1.34326,1.08038 -0.0813,1.09532 0.88951,0.01 1.52599,0.72226 1.41439,1.58164 -0.11163,0.85937 -0.13625,2.38616 -0.0547,3.39286 0.12927,1.59766 0.38395,1.5945 2.00327,-0.0249 1.58428,-1.58428 1.62854,-2.94674 0.3031,-9.33035 z m 7.78526,5.33731 c 1.26664,-2.92187 2.7045,-7.22507 3.19525,-9.56266 0.75545,-3.59837 0.58318,-4.13155 -1.12325,-3.47674 -1.36464,0.52366 -2.0317,0.0796 -2.06559,-1.37482 -0.0343,-1.46975 -0.65289,-1.03615 -1.9587,1.37278 -1.19585,2.20609 -1.48572,4.07339 -0.77617,5 0.88766,1.15924 1.14096,8.97894 0.29083,8.97894 -0.1085,0 -0.38562,0.98438 -0.61595,2.1875 -0.72865,3.80634 0.66883,2.37618 3.05358,-3.125 z m -7.86569,-27.5 c -0.34676,-0.85938 -0.63049,-0.15625 -0.63049,1.5625 0,1.71875 0.28373,2.42187 0.63049,1.5625 0.34676,-0.85938 0.34676,-2.26563 0,-3.125 z m 1.17736,-11.84896 c -0.41536,-0.41537 -0.7108,0.32292 -0.65652,1.64062 0.06,1.45619 0.35617,1.75238 0.7552,0.75521 0.36108,-0.90235 0.31668,-1.98047 -0.0986,-2.39583 z m 4.86979,0.34896 c 0,-1.77057 -0.46551,-2.59699 -1.10348,-1.95903 -0.60691,0.60692 -0.7652,1.98504 -0.35173,3.0625 1.05481,2.74879 1.45521,2.44517 1.45521,-1.10347 z m -0.88375,-24.04424 c -0.13274,-2.18995 -0.69729,-3.69993 -1.25456,-3.35552 -1.02324,0.6324 -0.55012,-7.93766 1.00961,-18.28774 0.46621,-3.09375 0.43984,-5.24769 -0.0586,-4.78653 -1.21775,1.12663 -2.97263,8.88016 -3.91251,17.28653 -0.42276,3.78125 -1.03077,7.30085 -1.35114,7.82133 -0.32036,0.52048 0.29693,1.28378 1.37175,1.69623 1.082,0.4152 1.96277,2.22446 1.97337,4.05368 0.0151,2.60046 0.27931,2.90461 1.2413,1.42876 0.67218,-1.03125 1.11355,-3.66678 0.98081,-5.85674 z m -113.49125,-7.26826 c 0,-1.71875 -0.4857,-3.125 -1.07933,-3.125 -0.84792,0 -1.09482,4.43968 -0.3302,5.9375 0.65461,1.28232 1.40953,-0.22397 1.40953,-2.8125 z m 9.52942,-7.76224 c -1.5561,-1.55611 -2.8025,1.17216 -2.23611,4.8947 l 0.62647,4.11754 1.11137,-4.19958 c 0.61125,-2.30976 0.83547,-4.47546 0.49827,-4.81266 z m -8.27942,-1.68654 c 0,-1.33442 -0.5625,-2.42622 -1.25,-2.42622 -0.6875,0 -1.25,1.43945 -1.25,3.19877 0,1.8142 0.54105,2.86438 1.25,2.42623 0.6875,-0.4249 1.25,-1.86435 1.25,-3.19878 z m 12.85708,-1.19569 c -0.61956,-2.36924 -2.85708,-4.79474 -2.85708,-3.09713 0,1.06292 2.47438,5.6166 3.05195,5.6166 0.2552,0 0.16751,-1.13376 -0.19487,-2.51947 z m 93.88503,-3.20998 c 0.46717,-1.21739 0.1878,-1.78885 -0.72564,-1.48437 -1.86854,0.62284 -2.89736,3.46382 -1.25437,3.46382 0.67124,0 1.56224,-0.89075 1.98001,-1.97945 z m -92.837,-4.60389 c -1.23453,-1.22532 -1.3781,-1.08175 -0.69975,0.69975 0.46941,1.23278 1.16836,1.92653 1.55322,1.54167 0.38487,-0.38487 8e-4,-1.39349 -0.85347,-2.24142 z m 91.71989,-10.08886 c 0,-3.20453 -0.45508,-5.82673 -1.01128,-5.8271 -0.55619,-3.9e-4 -0.66362,-0.5632 -0.23872,-1.2507 1.17506,-1.90129 -0.20364,-1.49279 -2.41071,0.71429 -2.46179,2.46179 -2.536,7.28542 -0.14882,9.67261 0.99852,0.99851 1.42039,2.2407 0.9375,2.76043 -0.48288,0.51971 -0.0343,0.67762 0.99703,0.35091 1.31353,-0.41614 1.875,-2.33874 1.875,-6.42044 z m -126.875,-0.2028 c 0.85586,-1.03125 1.27486,-1.875 0.93111,-1.875 -0.34375,0 -1.32525,0.84375 -2.18111,1.875 -0.85587,1.03125 -1.27487,1.875 -0.93112,1.875 0.34375,0 1.32525,-0.84375 2.18112,-1.875 z m 131.21025,-7.8125 c 0.0219,-1.54688 -0.47009,-2.8125 -1.09323,-2.8125 -0.62313,0 -0.98512,-0.98438 -0.80439,-2.1875 0.18071,-1.20312 0.0822,-1.46099 -0.21869,-0.57304 -0.34775,1.02588 -1.51433,1.30754 -3.1998,0.77259 -2.45313,-0.77859 -2.49918,-0.68851 -0.61263,1.19804 1.12195,1.12195 2.7082,2.03991 3.52499,2.03991 1.43509,0 1.2724,1.58013 -0.70785,6.875 -0.93499,2.5 -0.93499,2.5 1.06843,0 1.10188,-1.375 2.02129,-3.76562 2.04317,-5.3125 z m -127.83925,4.31054 c 0.39803,1.09537 1.30975,1.14928 3.39193,0.20057 2.21117,-1.00747 2.707,-2.0329 2.21855,-4.58809 -0.57022,-2.98295 -0.71912,-3.06013 -1.59241,-0.82558 -0.82545,2.11219 -0.97594,2.15192 -1.05121,0.27756 -0.116,-2.88758 -1.4964,-2.7591 -5.85679,0.54509 -1.98334,1.50294 -3.80302,2.87176 -4.04375,3.04183 -0.24071,0.17009 -0.074,0.89766 0.37045,1.61682 0.54978,0.88955 1.64103,0.81623 3.41349,-0.22934 2.01316,-1.18756 2.7291,-1.19639 3.14974,-0.0389 z m -3.58338,-2.29913 c 1.26293,-1.67981 2.09314,-1.79294 4.58636,-0.625 1.67437,0.78435 2.48127,1.61989 1.79313,1.85677 -0.68814,0.23687 -1.97689,-0.17162 -2.86389,-0.90777 -1.15737,-0.96053 -2.09902,-0.90567 -3.33519,0.19433 -1.4389,1.28042 -1.4686,1.1951 -0.18041,-0.51833 z m -5.87817,0.59644 c 1.5556,-1.88575 1.45332,-1.93992 -1.09695,-0.58103 -2.9087,1.54989 -3.62492,2.66068 -1.71555,2.66068 0.60331,0 1.86893,-0.93584 2.8125,-2.07965 z m -0.40945,-5.67035 c 2.35948,-2.35949 1.75326,-3.7235 -1,-2.25 -1.375,0.73588 -2.5,1.88066 -2.5,2.54397 0,1.65549 1.69271,1.51332 3.5,-0.29397 z m 0.89305,-9.52361 c -0.3682,-0.3682 -1.75464,0.49536 -3.08098,1.91901 -1.32634,1.42366 -2.03182,2.96819 -1.56774,3.43227 0.46409,0.46409 1.85053,-0.39947 3.08099,-1.91902 1.23045,-1.51954 1.93593,-3.06406 1.56773,-3.43226 z m 6.85695,1.96234 c 0,-0.52795 -1.125,-0.25734 -2.5,0.60136 -1.375,0.8587 -2.5,1.99323 -2.5,2.52119 0,0.52795 1.125,0.25733 2.5,-0.60137 1.375,-0.8587 2.5,-1.99323 2.5,-2.52118 z m 49.33827,-1.1472 c -0.38356,-2.17717 -1.2257,-4.84904 -1.87141,-5.9375 -0.81711,-1.37739 -0.94303,-0.744 -0.41419,2.08347 0.55611,2.97334 0.29903,4.07316 -0.95892,4.10225 -1.15375,0.0267 -0.92113,0.64305 0.70766,1.875 3.26891,2.47249 3.33654,2.41588 2.53686,-2.12322 z m 67.66694,-3.20299 c -0.41536,-0.41536 -0.7108,0.32292 -0.65652,1.64062 0.06,1.45619 0.35617,1.75238 0.7552,0.75522 0.36109,-0.90235 0.31669,-1.98048 -0.0986,-2.39584 z m 7.99479,2.16146 c 0,-0.6875 -0.5625,-1.25 -1.25,-1.25 -0.6875,0 -1.25,0.5625 -1.25,1.25 0,0.6875 0.5625,1.25 1.25,1.25 0.6875,0 1.25,-0.5625 1.25,-1.25 z m -126.25,-2.63374 c 0,-1.60745 -0.72359,-1.3817 -2.52375,0.78735 -1.32098,1.59169 -1.24365,1.7746 0.47195,1.11627 1.12848,-0.43304 2.0518,-1.28967 2.0518,-1.90362 z m 1.25,-4.9693 3.125,-2.54745 -4.0625,1.98235 c -2.23438,1.09029 -4.0625,2.24914 -4.0625,2.57524 0,1.24309 1.99122,0.44256 5,-2.01014 z m 51.36207,-5.22717 c -0.66432,-1.74731 -1.73069,-3.50006 -2.36967,-3.89498 -0.639,-0.39492 -0.28257,1.2218 0.79207,3.59273 2.21996,4.89777 3.41163,5.12609 1.5776,0.30225 z m 12.59849,0.0408 c -0.92758,-0.92759 -1.09026,-0.43955 -0.54655,1.63963 0.44202,1.69025 1.00863,2.25688 1.32069,1.32069 0.3006,-0.9018 -0.0477,-2.23395 -0.77414,-2.96032 z m 11.03944,-2.05749 c 0,-0.60331 -0.7995,-1.76046 -1.77666,-2.57144 -1.45781,-1.20987 -1.65598,-1.01301 -1.1042,1.09695 0.65701,2.51244 2.88086,3.65065 2.88086,1.47449 z m 158.14778,-20.25676 c 1.26786,-5.77254 -0.13213,-5.72973 -1.5989,0.0489 -0.7029,2.76923 -0.81973,4.75173 -0.25962,4.40556 0.56012,-0.34617 1.39645,-2.35067 1.85852,-4.45444 z m -143.194,-7.48265 c -1.13578,-2.12223 -1.1175,-2.50787 0.0836,-1.76549 0.99511,0.61501 1.33163,0.33771 0.9546,-0.78665 -0.32025,-0.95508 -1.47852,-1.74368 -2.57394,-1.75244 -1.09541,-0.009 -2.45323,-0.47752 -3.01738,-1.04167 -0.56415,-0.56415 -0.46323,-0.91224 0.22427,-0.77353 3.72691,0.75193 4.36279,-0.22741 4.03561,-6.21549 -0.18546,-3.3944 -0.78167,-6.6161 -1.32491,-7.15933 -0.54325,-0.54325 -0.70951,0.54648 -0.36949,2.42162 0.74712,4.12001 -0.025,4.25965 -3.82315,0.69145 -1.59113,-1.49485 -2.89301,-2.1332 -2.89301,-1.41857 0,1.40763 4.73112,7.93784 6.83191,9.42982 0.88586,0.62914 0.87975,0.92439 -0.0194,0.9375 -0.72188,0.01 -2.02083,-0.68399 -2.88657,-1.54336 -1.26267,-1.25341 -1.39375,-1.08921 -0.66257,0.83005 0.62299,1.6353 0.46267,2.11519 -0.5065,1.5162 -1.76556,-1.09118 1.64161,7.31129 4.54071,11.19789 1.90973,2.56023 2.10899,2.59787 2.46841,0.46619 0.21505,-1.27538 -0.26295,-3.54077 -1.06221,-5.03419 z m -73.70378,-10.67243 c 0,-2.44163 -0.9342,-2.16697 -2.48495,0.7306 -1.07929,2.01669 -0.9723,2.33734 0.58102,1.74128 1.04716,-0.40184 1.90393,-1.51418 1.90393,-2.47188 z m 175.83838,-0.0696 c -0.36963,-0.36963 -1.33203,-0.26415 -2.13867,0.23437 -1.08742,0.67208 -1.02813,1.17885 0.22934,1.96011 1.6668,1.03559 3.28245,-0.82135 1.90933,-2.19448 z m 1.30707,-5.1092 c 0.16115,-2.90472 0.0339,-3.05001 -0.82095,-0.9375 -0.85326,2.10855 -0.6711,4.375 0.35164,4.375 0.15322,0 0.36441,-1.54688 0.46931,-3.4375 z m -37.5676,-6.875 c -0.34676,-0.85938 -0.63049,-0.15625 -0.63049,1.5625 0,1.71875 0.28373,2.42187 0.63049,1.5625 0.34676,-0.85938 0.34676,-2.26563 0,-3.125 z m -170,-12.5 c -0.34677,-0.85938 -0.63049,-0.15625 -0.63049,1.5625 0,1.71875 0.28372,2.42187 0.63049,1.5625 0.34676,-0.85938 0.34676,-2.26563 0,-3.125 z m 98.21135,-0.40004 c -0.36534,-1.91116 -1.07128,-2.75539 -1.74264,-2.08402 -1.21948,1.21948 -0.13118,5.29656 1.41384,5.29656 0.5186,0 0.66656,-1.44565 0.3288,-3.21254 z m -183.34592,-0.42697 c -0.38733,-0.62673 2.11072,-3.20589 5.55123,-5.73147 3.44052,-2.52557 6.25549,-4.83973 6.25549,-5.14259 0,-1.15053 -7.99977,3.64969 -10.87644,6.52637 -2.5558,2.5558 -3.01044,5.4872 -0.85103,5.4872 0.34375,0 0.30809,-0.51278 -0.0793,-1.13951 z m 5.55672,-1.50797 c 0,-0.6875 -0.5625,-0.90236 -1.25,-0.47746 -0.6875,0.4249 -1.25,1.33504 -1.25,2.02254 0,0.6875 0.5625,0.90236 1.25,0.47746 0.6875,-0.4249 1.25,-1.33504 1.25,-2.02254 z m 3.75,-2.97746 c 0.85586,-1.03125 1.27486,-1.875 0.93111,-1.875 -0.34375,0 -1.32525,0.84375 -2.18111,1.875 -0.85587,1.03125 -1.27487,1.875 -0.93112,1.875 0.34375,0 1.32525,-0.84375 2.18112,-1.875 z m 1.25,-9.53926 c 0.34375,-0.46585 1.1875,-0.96733 1.875,-1.11438 2.10796,-0.45089 4.98125,-3.006 5.34347,-4.75177 0.1889,-0.91048 -0.25761,-1.28393 -0.99226,-0.82989 -0.73465,0.45404 -2.13394,0.16306 -3.10953,-0.6466 -1.41748,-1.17641 -2.43507,-0.75861 -5.0657,2.07989 -1.81053,1.95361 -3.80018,3.55201 -4.42143,3.55201 -0.62125,0 -1.17643,0.46875 -1.23372,1.04166 -0.24863,2.48638 1.26197,1.9288 4.1846,-1.54456 1.72784,-2.05341 3.48533,-3.38966 3.90554,-2.96945 0.42021,0.42021 0.76403,0.014 0.76403,-0.90265 0,-2.1156 1.64872,-0.54288 2.00978,1.91714 0.14892,1.01462 -0.22567,1.53796 -0.8324,1.16298 -0.60673,-0.37498 -3.22923,1.35009 -5.82777,3.8335 -4.27705,4.08755 -4.36938,4.30233 -0.97461,2.26722 2.0625,-1.23645 4.03125,-2.62925 4.375,-3.0951 z m -36.67215,-15.14824 c -0.34677,-0.85937 -0.63049,-0.15625 -0.63049,1.5625 0,1.71875 0.28372,2.42188 0.63049,1.5625 0.34676,-0.85937 0.34676,-2.26562 0,-3.125 z m 109.2454,-8.54496 c -1.90907,-4.21603 -2.31663,-4.63296 -1.72779,-1.76754 1.14385,5.5663 3.13094,10.18986 3.71435,8.64254 0.28151,-0.74661 -0.61245,-3.84037 -1.98656,-6.875 z m 6.52597,3.80789 c -0.3667,-1.40228 -0.94604,-2.27029 -1.2874,-1.92892 -0.67625,0.67624 0.51824,4.47849 1.40693,4.47849 0.30096,0 0.24717,-1.14731 -0.1195,-2.54958 z m 2.30336,-0.79418 c -1.47355,-2.53401 -1.82938,-1.72294 -0.62316,1.42043 0.42868,1.11712 1.04274,1.76782 1.36458,1.44598 0.32183,-0.32183 -0.0113,-1.61172 -0.74142,-2.86641 z m 3.68538,1.0081 c -0.6875,-1.2846 -0.95113,-2.63452 -0.58583,-2.99982 0.36532,-0.3653 0.11363,-1.00444 -0.55923,-1.42032 -0.67289,-0.41586 -1.0346,0.23094 -0.80382,1.43734 0.2308,1.2064 0.46268,2.89658 0.51528,3.75595 0.0526,0.85938 0.67792,1.5625 1.38961,1.5625 0.87629,0 0.89049,-0.75395 0.044,-2.33565 z M 296.37442,404.03315 c -0.41536,-0.41536 -0.7108,0.32292 -0.65653,1.64062 0.06,1.45619 0.35618,1.75238 0.7552,0.75522 0.36109,-0.90235 0.31669,-1.98048 -0.0986,-2.39584 z m 342.97565,-0.65104 c -0.01,-0.85937 -0.49498,-2.31318 -1.07659,-3.23066 -0.80791,-1.27454 -1.21375,-1.0704 -1.71989,0.86511 -0.36437,1.39331 -0.34865,2.84711 0.0349,3.23068 1.23115,1.23113 2.7813,0.74552 2.76158,-0.86513 z m -341.72565,-4.34896 c -0.41536,-0.41537 -0.7108,0.32292 -0.65653,1.64062 0.06,1.45619 0.35618,1.75238 0.7552,0.75522 0.36109,-0.90236 0.31669,-1.98048 -0.0986,-2.39584 z m 25.49479,-1.03732 c 0,-0.30317 -0.5625,-0.55122 -1.25,-0.55122 -0.6875,0 -1.25,0.5957 -1.25,1.32377 0,0.72808 0.5625,0.97613 1.25,0.55123 0.6875,-0.4249 1.25,-1.0206 1.25,-1.32378 z m -10.88737,-1.80295 c 0.35982,-1.37594 0.14418,-2.18649 -0.47921,-1.80122 -0.62339,0.38527 -1.13342,1.51105 -1.13342,2.50172 0,2.58719 0.84937,2.21824 1.61263,-0.7005 z m -13.35742,-2.15973 c -0.41536,-0.41537 -0.7108,0.32292 -0.65653,1.64062 0.06,1.45619 0.35618,1.75238 0.7552,0.75522 0.36109,-0.90236 0.31669,-1.98048 -0.0986,-2.39584 z m -6.25,-1.25 c -0.41536,-0.41537 -0.7108,0.32292 -0.65653,1.64062 0.06,1.45619 0.35618,1.75238 0.7552,0.75522 0.36109,-0.90236 0.31669,-1.98048 -0.0986,-2.39584 z m 26.47949,-0.50943 c -0.31207,-0.93618 -0.87868,-0.36956 -1.32069,1.32069 -0.54371,2.07919 -0.38104,2.56723 0.54655,1.63964 0.72637,-0.72638 1.07474,-2.05853 0.77414,-2.96033 z m -23.90685,-1.39161 c -0.34677,-0.85937 -0.63049,-0.15625 -0.63049,1.5625 0,1.71875 0.28372,2.42188 0.63049,1.5625 0.34676,-0.85937 0.34676,-2.26562 0,-3.125 z m 30.31515,-2.1875 c -0.0453,-1.23633 -0.43465,-1.02343 -1.143,0.625 -1.47665,3.43636 -1.47665,5.40996 0,3.125 0.66645,-1.03125 1.1808,-2.71875 1.143,-3.75 z m 3.75,-0.625 c 0.0378,-0.6875 -0.47655,-0.40625 -1.143,0.625 -0.66645,1.03125 -1.1808,2.71875 -1.143,3.75 0.0725,1.97981 2.15583,-2.00722 2.286,-4.375 z m -34.893,-5 c 0.85586,-1.03125 1.27486,-1.875 0.93111,-1.875 -0.34375,0 -1.32525,0.84375 -2.18111,1.875 -0.85587,1.03125 -1.27487,1.875 -0.93112,1.875 0.34375,0 1.32525,-0.84375 2.18112,-1.875 z m 64.57756,-0.9375 c 1.16452,-1.86601 1.89941,-5.9375 1.0717,-5.9375 -0.32179,0 -1.4577,1.6875 -2.52426,3.75 -1.84723,3.57214 -0.5916,5.46305 1.45256,2.1875 z m 21.39751,-6.94906 c 2.72416,-2.36265 5.09123,-8.98844 3.21111,-8.98844 -1.25508,0 -3.79901,3.8189 -5.46785,8.20828 -1.384,3.6402 -1.13868,3.72501 2.25674,0.78016 z m -4.96649,-7.14652 c -0.38486,-0.38486 -1.08381,0.30889 -1.55322,1.54167 -0.67835,1.7815 -0.53478,1.92507 0.69975,0.69975 0.85427,-0.84793 1.23834,-1.85655 0.85347,-2.24142 z m 248.19346,-21.21694 c -0.39574,-1.03125 -0.8804,-1.875 -1.07704,-1.875 -0.19664,0 -0.6813,0.84375 -1.07704,1.875 -0.43387,1.13069 -0.006,1.875 1.07704,1.875 1.08338,0 1.51091,-0.74431 1.07704,-1.875 z m -225.87419,-7.1875 c -0.34677,-0.85937 -0.63049,-0.15625 -0.63049,1.5625 0,1.71875 0.28372,2.42188 0.63049,1.5625 0.34676,-0.85937 0.34676,-2.26562 0,-3.125 z m 193.54715,2.8125 c -0.4249,-0.6875 -1.61629,-1.25 -2.64754,-1.25 -1.03125,0 -1.52736,0.5625 -1.10246,1.25 0.4249,0.6875 1.61629,1.25 2.64754,1.25 1.03125,0 1.52736,-0.5625 1.10246,-1.25 z m -197.22969,-9.6875 c -0.2864,-1.89062 -0.52074,-0.34375 -0.52074,3.4375 0,3.78125 0.23434,5.32812 0.52074,3.4375 0.28641,-1.89062 0.28641,-4.98438 0,-6.875 z m 174.82176,-17.52976 c -2.15968,-2.06278 -2.19321,-2.02925 -0.76181,0.76182 0.8235,1.60575 1.84011,2.57674 2.25911,2.15774 0.419,-0.419 -0.25478,-1.7328 -1.4973,-2.91956 z m -166.13922,-9.34524 c -0.34677,-0.85937 -0.63049,-0.15625 -0.63049,1.5625 0,1.71875 0.28372,2.42188 0.63049,1.5625 0.34676,-0.85937 0.34676,-2.26562 0,-3.125 z m 202.92215,-21.40945 c 0,-0.25956 -0.98438,-1.24394 -2.1875,-2.1875 -1.98257,-1.55484 -2.02679,-1.51062 -0.47195,0.47195 1.63296,2.08219 2.65945,2.74435 2.65945,1.71555 z m -63.125,-8.27805 c -0.4249,-0.6875 -1.33504,-1.25 -2.02254,-1.25 -0.6875,0 -0.90236,0.5625 -0.47746,1.25 0.4249,0.6875 1.33504,1.25 2.02254,1.25 0.6875,0 0.90236,-0.5625 0.47746,-1.25 z m 5.08411,-4.70755 c -1.13295,-1.13296 -4.61851,0.93837 -3.80205,2.25942 0.56005,0.90618 1.37746,0.85314 2.60943,-0.1693 0.98666,-0.81885 1.52333,-1.75941 1.19262,-2.09012 z m -1.64661,-2.3703 c -0.85938,-0.34676 -2.26563,-0.34676 -3.125,0 -0.85938,0.34676 -0.15625,0.63049 1.5625,0.63049 1.71875,0 2.42187,-0.28373 1.5625,-0.63049 z M 386.07124,251.81959 c 0.39573,-1.03125 0.52478,-1.875 0.28679,-1.875 -0.23799,0 -1.13296,0.84375 -1.98882,1.875 -0.89694,1.08074 -1.01843,1.875 -0.28679,1.875 0.69812,0 1.59309,-0.84375 1.98882,-1.875 z m 143.91412,-5.61069 c 0.43792,-0.70857 -0.0639,-0.91812 -1.17622,-0.49126 -2.16553,0.83099 -2.56174,1.72695 -0.7637,1.72695 0.64692,0 1.5199,-0.55606 1.93992,-1.23569 z m -85.373,-14.72492 c -0.8298,-0.2766 -1.19078,-1.01738 -0.80217,-1.64615 0.3886,-0.62878 -0.17038,-1.14324 -1.24221,-1.14324 -2.35664,0 -2.45855,0.8038 -0.38627,3.04656 0.85937,0.93006 2.0973,1.36584 2.75093,0.96838 0.67759,-0.41203 0.53992,-0.93883 -0.32028,-1.22555 z M 307.18443,826.81959 c -0.0139,-2.75 0.23076,-4.02219 0.54363,-2.82707 0.31286,1.19511 0.32421,3.44511 0.0252,5 -0.29899,1.55488 -0.55498,0.57707 -0.56885,-2.17293 z m 11.84879,1.9752 c -0.54371,-2.07919 -0.38104,-2.56722 0.54655,-1.63964 0.72637,0.72638 1.07474,2.05853 0.77414,2.96033 -0.31207,0.93619 -0.87868,0.36956 -1.32069,-1.32069 z m -0.62401,-8.8502 c 0,-2.40625 0.25725,-3.39062 0.57166,-2.1875 0.3144,1.20312 0.3144,3.17188 0,4.375 -0.31441,1.20312 -0.57166,0.21875 -0.57166,-2.1875 z m -12.59264,-3.75 c 0,-1.71875 0.28372,-2.42188 0.63049,-1.5625 0.34676,0.85937 0.34676,2.26562 0,3.125 -0.34677,0.85937 -0.63049,0.15625 -0.63049,-1.5625 z m -47.59036,0 c -0.0378,-1.03125 0.47655,-2.71875 1.143,-3.75 1.47665,-2.28496 1.47665,-0.31136 0,3.125 -0.70835,1.64843 -1.09769,1.86133 -1.143,0.625 z m -292.409644,-5 c 0,-1.71875 0.28373,-2.42188 0.63049,-1.5625 0.34676,0.85937 0.34676,2.26562 0,3.125 -0.34676,0.85937 -0.63049,0.15625 -0.63049,-1.5625 z m 8.65133,0.72916 c -0.0542,-1.3177 0.24116,-2.05598 0.65652,-1.64062 0.41537,0.41536 0.45977,1.4935 0.0986,2.39583 -0.39903,0.99717 -0.69523,0.70098 -0.7552,-0.75521 z M 411.86921,761.89337 c 0,-1.31935 2.39888,-1.87364 3.1124,-0.71917 0.43182,0.69871 -0.0918,1.27039 -1.16363,1.27039 -1.07182,0 -1.94877,-0.24805 -1.94877,-0.55122 z m 55.37458,-71.94878 c 0,-3.78125 0.23433,-5.32812 0.52073,-3.4375 0.28642,1.89062 0.28642,4.98438 0,6.875 -0.2864,1.89063 -0.52073,0.34375 -0.52073,-3.4375 z m -1.52589,-18.02084 c -0.0542,-1.3177 0.24116,-2.05599 0.65652,-1.64062 0.41536,0.41536 0.45976,1.49348 0.0986,2.39583 -0.39903,0.99717 -0.69523,0.70098 -0.7552,-0.75521 z M 578.97858,649.1373 c -1.8388,-1.8388 -0.87177,-5.62841 1.32813,-5.20475 1.20312,0.2317 2.1875,1.4917 2.1875,2.79999 0,2.48693 -2.03885,3.88154 -3.51563,2.40476 z M 445.61921,633.06959 c 0,-1.03125 0.75,-1.875 1.66666,-1.875 0.91667,0 1.66667,0.84375 1.66667,1.875 0,1.03125 -0.75,1.875 -1.66667,1.875 -0.91666,0 -1.66666,-0.84375 -1.66666,-1.875 z m -3.65132,-1.14584 c -0.0543,-1.3177 0.24117,-2.05599 0.65653,-1.64062 0.41536,0.41536 0.45976,1.49348 0.0986,2.39583 -0.39903,0.99717 -0.69523,0.70098 -0.7552,-0.75521 z m 6.77632,-7.9358 c -2.15342,-1.58209 -2.1401,-5.29336 0.019,-5.29336 1.19616,0 1.64415,-0.58156 1.11166,-1.44314 -0.49888,-0.80719 -0.3478,-1.10686 0.34281,-0.68004 0.92546,0.57198 0.8756,8.45819 -0.0529,8.35404 -0.0939,-0.01 -0.73312,-0.4324 -1.42062,-0.9375 z m -10.335,-20.29336 c 0,-2.40625 0.25725,-3.39062 0.57166,-2.1875 0.3144,1.20312 0.3144,3.17188 0,4.375 -0.31441,1.20312 -0.57166,0.21875 -0.57166,-2.1875 z m -28.03504,-19.6875 c -0.29514,-1.20312 0.19347,-3.59375 1.08579,-5.3125 0.89231,-1.71875 1.63068,-2.74912 1.64082,-2.28974 0.01,0.4594 0.36869,1.74803 0.79678,2.86363 0.5099,1.32877 0.18656,1.90294 -0.9375,1.66472 -1.13573,-0.24067 -1.58363,0.58728 -1.32478,2.44889 0.46111,3.31622 -0.48581,3.78551 -1.26111,0.625 z m 42.84372,-2.08334 c -0.0543,-1.3177 0.24117,-2.05599 0.65653,-1.64062 0.41536,0.41536 0.45976,1.49348 0.0986,2.39583 -0.39903,0.99717 -0.69523,0.70098 -0.7552,-0.75521 z m -58.1703,-5.64279 c -0.39555,-0.64 -0.24123,-1.459 0.34289,-1.82001 0.58414,-0.36101 1.06206,0.16261 1.06206,1.16363 0,2.10771 -0.39417,2.29186 -1.40495,0.65638 z m 49.32162,-0.84593 c 0,-1.03454 2.42716,-1.61956 2.98363,-0.71916 0.36102,0.58413 -0.16261,1.06206 -1.16362,1.06206 -1.001,0 -1.82001,-0.15432 -1.82001,-0.3429 z m -40.3956,-3.46838 c -0.46993,-1.22458 -0.854,-2.32115 -0.85352,-2.4368 4.8e-4,-0.11562 1.36525,-0.2888 3.03283,-0.38478 2.10981,-0.1215 2.83005,0.35157 2.36812,1.55531 -0.36508,0.95142 -1.11931,1.44832 -1.67605,1.10425 -0.55675,-0.34409 -1.23832,0.0526 -1.51462,0.88147 -0.30859,0.92578 -0.83193,0.64827 -1.35676,-0.71945 z m -7.1044,-2.64706 c 0,-1.03125 0.54485,-1.875 1.21077,-1.875 0.66591,0 0.88699,0.84375 0.49126,1.875 -0.39573,1.03125 -0.94057,1.875 -1.21077,1.875 -0.27019,0 -0.49126,-0.84375 -0.49126,-1.875 z m 55.85211,1.06045 c -0.46866,-0.46866 -0.85211,-2.2016 -0.85211,-3.85096 0,-1.64936 -0.55508,-4.036 -1.23349,-5.30364 -0.99351,-1.85639 -0.81111,-2.24016 0.9375,-1.9726 1.51574,0.23194 2.16944,1.48322 2.16585,4.14579 -0.003,2.09747 0.41905,3.55142 0.9375,3.231 1.23349,-0.76234 1.17507,1.01347 -0.0994,3.02125 -0.55205,0.8697 -1.38719,1.19782 -1.85586,0.72916 z m -60.09835,-1.47711 c -0.35409,-0.57293 0.15047,-1.04168 1.12124,-1.04168 0.97076,0 1.47532,0.46875 1.12123,1.04168 -0.35407,0.57291 -0.85863,1.04166 -1.12123,1.04166 -0.2626,0 -0.76717,-0.46875 -1.12124,-1.04166 z m 63.1936,-8.95834 c 0,-1.71875 0.28372,-2.42188 0.63049,-1.5625 0.34676,0.85937 0.34676,2.26562 0,3.125 -0.34677,0.85937 -0.63049,0.15625 -0.63049,-1.5625 z m -6.06505,-7.15391 c -0.17121,-3.27558 0.0992,-4.10212 0.91836,-2.8069 1.39541,2.20638 1.58003,7.46308 0.26183,7.45521 -0.51563,-0.003 -1.04672,-2.09483 -1.18019,-4.64831 z m 4.32305,-2.39482 c -0.6706,-5.38918 -0.46679,-6.06941 1.46147,-4.87767 1.59663,0.98678 1.72243,5.6266 0.21698,8.00267 -0.74395,1.17422 -1.26395,0.20607 -1.67845,-3.125 z M 349.46789,474.42375 c -0.0543,-1.3177 0.24117,-2.05599 0.65653,-1.64062 0.41536,0.41536 0.45976,1.49348 0.0986,2.39583 -0.39903,0.99717 -0.69523,0.70098 -0.7552,-0.75521 z m -40.6577,-0.6224 c -0.40247,-0.65121 -0.19896,-1.51331 0.45225,-1.91577 0.65122,-0.40248 1.51332,-0.19897 1.91578,0.45225 0.40247,0.65121 0.19896,1.51331 -0.45225,1.91577 -0.65121,0.40248 -1.51331,0.19897 -1.91578,-0.45225 z m 89.4077,-25.6276 c -0.0543,-1.3177 0.24117,-2.05599 0.65653,-1.64062 0.41536,0.41536 0.45976,1.49348 0.0986,2.39583 -0.39903,0.99717 -0.69523,0.70098 -0.7552,-0.75521 z M 277.06657,436.19459 c 0,-1.71875 0.28372,-2.42187 0.63049,-1.5625 0.34676,0.85938 0.34676,2.26563 0,3.125 -0.34677,0.85938 -0.63049,0.15625 -0.63049,-1.5625 z"
       id="path4147"
       inkscape:connector-curvature="0" />
  </g>
</svg>
